<svg id="svg" version="1.1" xmlns="http://www.w3.org/2000/svg" xmlns:xlink="http://www.w3.org/1999/xlink" width="400" height="400" viewBox="0, 0, 400,400"><g id="svgg"><path id="path0" d="M117.100 67.894 L 115.200 68.044 115.200 85.776 C 115.200 100.728,115.294 103.688,115.798 104.654 C 116.126 105.284,116.396 106.115,116.398 106.500 C 116.399 106.885,116.658 107.200,116.973 107.200 C 117.288 107.200,117.655 107.543,117.788 107.963 C 117.921 108.383,118.294 108.827,118.615 108.950 C 118.937 109.074,119.200 109.444,119.200 109.773 C 119.200 110.103,119.560 110.565,120.000 110.800 C 120.440 111.035,120.800 111.584,120.800 112.018 C 120.800 112.452,121.160 113.116,121.600 113.493 C 122.040 113.870,122.400 114.334,122.400 114.525 C 122.400 114.947,125.522 119.483,126.500 120.484 C 126.885 120.878,127.200 121.541,127.200 121.957 C 127.200 122.374,127.441 122.807,127.737 122.920 C 128.189 123.094,130.356 125.988,131.800 128.346 C 132.020 128.706,132.425 129.144,132.700 129.320 C 132.975 129.496,133.200 129.892,133.200 130.200 C 133.200 130.508,133.425 130.904,133.701 131.080 C 134.219 131.411,137.600 136.247,137.600 136.657 C 137.600 136.785,138.283 137.724,139.118 138.744 C 139.953 139.765,140.934 141.050,141.297 141.600 C 141.661 142.150,142.602 143.500,143.388 144.600 C 144.175 145.700,145.436 147.500,146.191 148.600 C 146.947 149.700,148.428 151.813,149.482 153.295 C 150.537 154.777,152.527 157.619,153.904 159.611 C 155.281 161.603,157.081 164.113,157.904 165.190 C 158.727 166.266,159.850 167.800,160.400 168.597 C 160.950 169.395,161.580 170.262,161.800 170.524 C 162.020 170.786,162.731 171.810,163.379 172.800 C 164.028 173.790,164.752 174.780,164.989 175.000 C 165.226 175.220,166.092 176.390,166.915 177.600 C 168.875 180.485,172.206 185.195,172.984 186.181 C 173.821 187.243,173.760 187.889,172.700 189.187 C 172.205 189.793,171.568 190.629,171.284 191.044 C 171.001 191.460,170.142 192.700,169.375 193.800 C 168.609 194.900,167.358 196.700,166.596 197.800 C 165.835 198.900,164.481 200.790,163.589 202.000 C 162.697 203.210,161.664 204.650,161.293 205.200 C 160.922 205.750,160.518 206.290,160.395 206.400 C 160.273 206.510,159.500 207.590,158.677 208.800 C 157.855 210.010,155.834 212.890,154.185 215.200 C 152.537 217.510,150.696 220.181,150.094 221.136 C 149.492 222.091,148.235 223.868,147.300 225.085 C 146.365 226.301,145.597 227.410,145.594 227.548 C 145.591 227.687,144.871 228.596,143.994 229.568 C 143.117 230.540,142.388 231.530,142.373 231.768 C 142.359 232.006,141.735 233.010,140.987 234.000 C 140.239 234.990,139.051 236.655,138.346 237.700 C 137.642 238.745,136.916 239.600,136.733 239.600 C 136.550 239.600,136.400 239.846,136.400 240.148 C 136.400 240.449,135.710 241.574,134.866 242.648 C 134.023 243.721,133.219 244.915,133.079 245.300 C 132.939 245.685,132.639 246.000,132.413 246.000 C 132.186 246.000,132.000 246.246,132.000 246.548 C 132.000 246.849,131.325 247.975,130.500 249.049 C 129.675 250.124,128.820 251.296,128.600 251.655 C 127.445 253.538,125.098 256.787,124.586 257.212 C 124.264 257.479,124.000 258.034,124.000 258.446 C 124.000 258.857,123.640 259.418,123.200 259.693 C 122.760 259.968,122.400 260.413,122.400 260.682 C 122.400 260.951,122.040 261.365,121.600 261.600 C 121.160 261.835,120.800 262.264,120.800 262.553 C 120.800 262.841,120.440 263.493,120.000 264.000 C 119.560 264.507,119.200 265.171,119.200 265.474 C 119.200 265.777,118.948 266.122,118.639 266.240 C 118.331 266.359,117.963 267.073,117.821 267.828 C 117.668 268.644,117.328 269.200,116.982 269.200 C 116.662 269.200,116.400 269.541,116.400 269.957 C 116.400 270.374,116.130 270.818,115.800 270.945 C 115.275 271.146,115.200 274.412,115.200 296.987 L 115.200 322.800 119.757 322.800 C 123.439 322.800,124.359 322.685,124.545 322.200 C 124.681 321.844,125.283 321.600,126.026 321.600 C 127.163 321.600,132.400 317.078,132.400 316.097 C 132.400 315.783,134.384 312.862,135.200 311.974 C 135.530 311.615,136.149 310.833,136.575 310.236 C 137.001 309.638,137.631 308.823,137.975 308.423 C 138.319 308.024,139.320 306.671,140.200 305.418 C 141.080 304.164,142.565 302.175,143.500 300.996 C 144.435 299.818,145.200 298.718,145.200 298.553 C 145.200 298.387,145.920 297.398,146.800 296.354 C 147.680 295.310,148.400 294.327,148.400 294.169 C 148.400 294.012,148.992 293.144,149.714 292.241 C 150.437 291.339,151.316 290.150,151.666 289.600 C 152.016 289.050,152.730 288.119,153.251 287.531 C 153.773 286.942,154.613 285.862,155.117 285.131 C 156.095 283.712,158.665 280.164,160.119 278.225 C 160.603 277.579,161.315 276.774,161.700 276.436 C 162.085 276.098,162.400 275.691,162.400 275.531 C 162.400 275.110,165.009 271.432,171.003 263.400 C 172.973 260.760,175.128 257.791,175.792 256.802 C 176.457 255.813,177.270 254.701,177.600 254.331 C 178.680 253.118,179.084 252.564,179.608 251.575 C 179.892 251.039,181.041 249.396,182.162 247.924 C 183.283 246.452,184.650 244.606,185.200 243.822 C 186.830 241.497,187.138 241.077,188.439 239.400 C 189.123 238.520,190.338 236.811,191.141 235.603 C 191.943 234.395,192.870 233.119,193.200 232.769 C 193.530 232.419,194.070 231.725,194.400 231.228 C 195.318 229.843,199.740 223.668,201.580 221.200 C 202.483 219.990,203.925 218.010,204.786 216.800 C 205.647 215.590,206.598 214.330,206.899 214.000 C 207.200 213.670,208.114 212.410,208.930 211.200 C 210.599 208.726,212.063 206.681,215.085 202.600 C 216.226 201.060,217.843 198.846,218.680 197.680 C 219.516 196.515,221.227 194.206,222.483 192.550 C 225.852 188.106,225.852 188.087,222.452 183.400 C 221.335 181.860,220.011 180.010,219.510 179.290 C 219.010 178.569,218.330 177.629,218.000 177.200 C 217.670 176.771,216.987 175.831,216.483 175.110 C 213.333 170.610,209.983 165.939,207.800 163.006 C 206.920 161.823,205.343 159.628,204.296 158.128 C 202.174 155.089,198.977 150.609,197.890 149.152 C 196.626 147.460,194.083 143.872,192.027 140.881 C 190.923 139.276,189.730 137.672,189.375 137.318 C 189.020 136.963,188.250 135.952,187.665 135.072 C 185.740 132.180,185.413 131.705,184.200 130.050 C 181.171 125.914,176.294 119.214,174.991 117.400 C 174.201 116.300,172.035 113.302,170.177 110.738 C 168.320 108.174,166.800 105.971,166.800 105.842 C 166.800 105.633,166.116 104.726,165.000 103.455 C 164.118 102.451,162.400 100.038,162.400 99.803 C 162.400 99.666,161.671 98.619,160.780 97.477 C 157.128 92.797,154.400 89.012,154.393 88.618 C 154.389 88.388,153.931 87.768,153.375 87.241 C 152.819 86.713,151.700 85.273,150.889 84.041 C 149.114 81.345,149.124 81.358,147.672 79.600 C 147.037 78.830,145.996 77.411,145.359 76.446 C 144.721 75.482,143.930 74.308,143.600 73.838 C 142.559 72.356,139.041 69.315,138.000 68.997 C 137.450 68.830,136.645 68.446,136.211 68.146 C 135.453 67.621,122.692 67.453,117.100 67.894 " stroke="none" fill="#3496b1" fill-rule="evenodd"></path><path id="path1" d="M58.226 8.231 C 57.815 8.642,56.538 8.942,54.566 9.091 C 52.726 9.230,51.309 9.548,50.957 9.900 C 50.639 10.218,49.618 10.578,48.689 10.699 C 47.760 10.820,46.571 11.253,46.046 11.660 C 45.521 12.067,44.650 12.400,44.109 12.400 C 43.569 12.400,42.669 12.760,42.109 13.200 C 41.550 13.640,40.784 14.000,40.408 14.000 C 40.032 14.000,39.398 14.360,39.000 14.800 C 38.602 15.240,37.938 15.600,37.525 15.600 C 37.113 15.600,36.671 15.870,36.545 16.200 C 36.418 16.530,36.071 16.800,35.773 16.800 C 35.475 16.800,34.909 17.121,34.516 17.514 C 34.122 17.906,33.009 18.759,32.041 19.409 C 31.074 20.059,29.454 21.378,28.441 22.342 C 27.429 23.305,26.195 24.363,25.700 24.693 C 25.205 25.022,24.800 25.457,24.800 25.659 C 24.800 25.861,24.215 26.615,23.500 27.334 C 22.097 28.745,20.000 31.405,20.000 31.773 C 20.000 31.898,19.632 32.405,19.181 32.900 C 18.731 33.395,18.116 34.071,17.813 34.403 C 17.511 34.735,17.140 35.502,16.988 36.107 C 16.836 36.712,16.549 37.308,16.350 37.431 C 16.151 37.554,15.724 38.227,15.402 38.927 C 15.080 39.627,14.663 40.470,14.476 40.800 C 13.129 43.179,12.400 44.891,12.397 45.679 C 12.396 46.186,12.037 47.140,11.600 47.800 C 11.102 48.551,10.804 49.677,10.803 50.811 C 10.801 51.807,10.537 52.997,10.216 53.456 C 9.106 55.041,9.060 59.932,8.895 193.400 C 8.725 331.437,8.807 340.412,10.262 343.293 C 10.565 343.894,10.927 345.213,11.065 346.223 C 11.204 347.234,11.651 348.715,12.059 349.515 C 12.466 350.315,12.800 351.250,12.800 351.592 C 12.800 351.935,13.329 353.202,13.975 354.408 C 14.621 355.614,15.730 357.754,16.440 359.165 C 17.149 360.576,18.016 362.047,18.365 362.434 C 18.714 362.821,19.720 364.171,20.600 365.434 C 22.549 368.232,29.297 375.137,31.440 376.526 C 32.298 377.082,33.523 378.001,34.162 378.568 C 34.801 379.136,35.597 379.600,35.931 379.600 C 36.264 379.600,36.867 379.899,37.271 380.264 C 38.397 381.283,39.312 381.779,43.400 383.585 C 44.280 383.974,45.630 384.585,46.400 384.944 C 47.170 385.303,48.430 385.713,49.200 385.856 C 49.970 385.998,51.058 386.344,51.618 386.625 C 52.177 386.906,53.977 387.254,55.618 387.399 C 57.258 387.544,59.279 387.919,60.108 388.231 C 62.311 389.062,335.865 389.091,338.250 388.260 C 339.102 387.963,341.119 387.601,342.731 387.455 C 344.343 387.308,346.143 386.945,346.731 386.648 C 347.319 386.350,348.511 385.978,349.380 385.820 C 350.248 385.663,351.323 385.279,351.769 384.967 C 352.214 384.655,352.855 384.400,353.193 384.400 C 353.881 384.400,360.882 380.912,361.197 380.411 C 361.309 380.234,362.030 379.821,362.800 379.492 C 363.570 379.164,364.817 378.334,365.572 377.647 C 366.327 376.961,367.065 376.400,367.214 376.400 C 367.510 376.400,368.549 375.484,372.300 371.913 C 373.675 370.604,374.800 369.432,374.800 369.309 C 374.800 369.185,375.174 368.705,375.630 368.242 C 377.060 366.792,381.200 361.118,381.200 360.609 C 381.200 360.342,381.560 359.798,382.000 359.400 C 382.440 359.002,382.803 358.479,382.807 358.238 C 382.810 357.997,383.433 356.555,384.190 355.033 C 384.947 353.511,385.674 351.773,385.806 351.172 C 385.938 350.570,386.396 349.392,386.823 348.554 C 387.250 347.716,387.600 346.523,387.600 345.903 C 387.600 345.282,387.887 344.105,388.237 343.287 C 389.467 340.416,389.561 330.170,389.561 198.000 C 389.561 64.708,389.472 54.894,388.247 53.146 C 387.891 52.638,387.600 51.451,387.600 50.510 C 387.600 49.561,387.243 48.131,386.800 47.304 C 386.360 46.484,386.000 45.584,386.000 45.304 C 386.000 45.025,385.640 44.125,385.200 43.304 C 384.760 42.484,384.400 41.606,384.400 41.355 C 384.400 41.104,384.142 40.683,383.826 40.421 C 383.510 40.159,383.139 39.432,383.001 38.806 C 382.864 38.179,382.492 37.567,382.176 37.446 C 381.859 37.324,381.600 36.876,381.600 36.448 C 381.600 36.021,380.909 34.798,380.064 33.729 C 379.220 32.661,378.455 31.571,378.364 31.307 C 377.995 30.229,371.057 22.884,368.720 21.096 C 368.214 20.710,367.234 19.945,366.542 19.396 C 365.850 18.848,365.085 18.400,364.842 18.400 C 364.599 18.400,364.400 18.252,364.400 18.071 C 364.400 17.622,361.264 15.600,360.567 15.600 C 360.259 15.600,359.782 15.240,359.507 14.800 C 359.232 14.360,358.625 14.000,358.158 14.000 C 357.690 14.000,356.879 13.666,356.354 13.258 C 355.829 12.850,354.738 12.394,353.929 12.245 C 353.120 12.096,352.393 11.780,352.314 11.541 C 352.234 11.302,351.200 10.954,350.016 10.767 C 348.832 10.580,347.727 10.205,347.560 9.935 C 347.393 9.664,345.901 9.314,344.244 9.156 C 342.585 8.997,340.826 8.583,340.327 8.234 C 338.942 7.263,59.197 7.261,58.226 8.231 M132.984 66.817 C 134.955 67.043,136.845 67.470,137.184 67.767 C 137.523 68.063,138.176 68.420,138.636 68.559 C 139.602 68.853,143.370 72.516,144.716 74.470 C 145.220 75.202,146.612 77.150,147.810 78.800 C 149.008 80.450,150.395 82.379,150.894 83.086 C 152.390 85.211,154.665 88.356,158.022 92.940 C 159.770 95.327,161.200 97.346,161.200 97.426 C 161.200 97.561,168.759 108.095,169.506 109.000 C 169.687 109.220,170.714 110.660,171.787 112.200 C 174.366 115.899,177.084 119.699,177.519 120.213 C 177.886 120.646,179.777 123.283,180.800 124.788 C 181.130 125.274,181.805 126.114,182.300 126.656 C 182.795 127.198,183.200 127.822,183.200 128.042 C 183.200 128.262,184.145 129.651,185.300 131.129 C 187.926 134.487,189.200 136.288,189.200 136.642 C 189.200 136.792,189.577 137.295,190.038 137.758 C 190.787 138.510,191.918 140.043,194.883 144.324 C 195.387 145.053,196.700 146.854,197.800 148.328 C 198.900 149.801,200.339 151.815,200.999 152.803 C 201.658 153.792,202.301 154.690,202.427 154.800 C 202.553 154.910,203.529 156.260,204.597 157.800 C 205.664 159.340,207.947 162.531,209.669 164.891 C 211.391 167.251,212.800 169.344,212.800 169.542 C 212.800 169.740,213.055 170.114,213.366 170.372 C 213.678 170.631,214.768 172.048,215.789 173.521 C 216.810 174.995,218.265 177.010,219.023 178.000 C 219.780 178.990,220.524 180.062,220.674 180.382 C 220.942 180.951,221.254 181.355,223.107 183.534 C 226.119 187.076,226.081 188.445,222.854 192.576 C 221.813 193.909,220.656 195.450,220.284 196.000 C 219.912 196.550,218.617 198.350,217.406 200.000 C 216.195 201.650,214.531 203.990,213.708 205.200 C 212.885 206.410,211.309 208.603,210.206 210.074 C 208.206 212.740,207.244 214.052,201.467 222.000 C 199.788 224.310,198.141 226.485,197.807 226.834 C 197.473 227.182,197.200 227.604,197.200 227.771 C 197.200 227.938,195.911 229.813,194.336 231.937 C 191.720 235.465,189.462 238.544,186.800 242.215 C 186.250 242.974,185.170 244.511,184.400 245.631 C 183.630 246.751,182.280 248.643,181.400 249.835 C 180.520 251.027,179.080 253.001,178.200 254.221 C 177.320 255.441,175.610 257.772,174.400 259.400 C 173.190 261.028,171.518 263.315,170.685 264.480 C 169.359 266.334,166.329 270.514,160.942 277.920 C 160.094 279.085,158.410 281.372,157.200 283.000 C 155.990 284.628,154.280 286.967,153.400 288.198 C 152.520 289.428,151.395 290.948,150.900 291.575 C 150.405 292.202,150.000 292.841,150.000 292.995 C 150.000 293.148,149.363 294.112,148.584 295.137 C 147.805 296.162,146.104 298.440,144.804 300.200 C 143.504 301.960,142.096 303.850,141.674 304.400 C 141.252 304.950,140.340 306.210,139.648 307.200 C 138.955 308.190,137.402 310.350,136.197 312.000 C 134.991 313.650,133.353 315.950,132.556 317.111 C 128.239 323.403,126.911 323.800,110.200 323.800 L 96.200 323.800 94.200 322.641 C 85.917 317.843,85.386 308.377,92.931 300.000 C 93.228 299.670,93.905 298.770,94.435 298.000 C 94.966 297.230,95.760 296.130,96.200 295.556 C 96.640 294.981,97.270 294.101,97.600 293.600 C 97.930 293.099,98.605 292.193,99.100 291.587 C 99.595 290.980,100.000 290.308,100.000 290.091 C 100.000 289.875,100.255 289.486,100.566 289.228 C 100.878 288.969,101.971 287.552,102.995 286.079 C 104.019 284.605,106.018 281.780,107.437 279.800 C 108.855 277.820,110.449 275.570,110.979 274.800 C 111.509 274.030,112.665 272.410,113.550 271.200 C 114.434 269.990,116.159 267.560,117.383 265.800 C 118.607 264.040,120.406 261.520,121.381 260.200 C 122.356 258.880,124.014 256.540,125.064 255.000 C 126.114 253.460,127.880 250.995,128.987 249.521 C 132.450 244.914,133.773 243.101,134.193 242.392 C 134.986 241.055,136.150 239.395,136.572 239.000 C 136.807 238.780,137.781 237.447,138.735 236.037 C 141.336 232.194,142.065 231.172,143.614 229.200 C 144.392 228.210,145.543 226.600,146.172 225.621 C 146.801 224.643,147.467 223.653,147.652 223.421 C 147.837 223.190,148.441 222.434,148.994 221.742 C 149.547 221.050,150.000 220.378,150.000 220.248 C 150.000 220.118,150.945 218.760,152.100 217.230 C 153.255 215.700,154.650 213.794,155.200 212.995 C 155.750 212.195,156.481 211.239,156.824 210.871 C 157.167 210.502,158.103 209.210,158.902 208.000 C 159.702 206.790,161.072 204.810,161.947 203.600 C 162.822 202.390,164.481 200.050,165.633 198.400 C 166.786 196.750,167.838 195.310,167.971 195.200 C 168.104 195.090,169.080 193.705,170.140 192.121 C 171.200 190.538,172.322 189.031,172.634 188.772 C 173.679 187.904,172.355 185.429,167.318 178.835 C 164.147 174.684,162.981 173.118,162.400 172.233 C 161.186 170.383,160.213 168.995,159.994 168.800 C 159.871 168.690,159.237 167.790,158.585 166.800 C 157.933 165.810,156.600 163.920,155.623 162.600 C 152.131 157.883,150.185 155.215,149.200 153.795 C 148.650 153.001,148.016 152.138,147.791 151.876 C 147.566 151.614,146.710 150.410,145.889 149.200 C 145.068 147.990,143.596 145.920,142.618 144.600 C 141.640 143.280,139.976 140.950,138.920 139.422 C 137.864 137.894,136.730 136.340,136.400 135.967 C 136.070 135.595,135.170 134.363,134.400 133.231 C 133.630 132.099,132.235 130.167,131.300 128.938 C 130.365 127.709,129.600 126.573,129.600 126.414 C 129.600 126.255,129.136 125.601,128.568 124.962 C 127.591 123.861,125.879 121.488,124.997 120.012 C 124.776 119.641,124.326 119.048,123.997 118.693 C 123.669 118.338,122.990 117.452,122.488 116.724 C 121.986 115.996,120.186 113.486,118.488 111.147 C 116.790 108.807,115.130 106.487,114.800 105.991 C 114.470 105.495,113.795 104.593,113.300 103.987 C 112.805 103.380,112.400 102.759,112.400 102.605 C 112.400 102.452,111.764 101.488,110.986 100.463 C 109.478 98.477,107.156 95.321,104.684 91.899 C 103.850 90.744,102.455 88.822,101.584 87.628 C 100.713 86.433,100.000 85.168,100.000 84.817 C 100.000 84.465,99.698 83.748,99.330 83.221 C 96.476 79.147,99.703 70.542,105.185 67.608 C 107.253 66.501,125.655 65.978,132.984 66.817 M290.365 66.793 C 292.862 67.080,294.130 67.445,295.282 68.207 C 297.366 69.586,299.999 72.343,300.002 73.148 C 300.004 73.507,300.274 74.316,300.602 74.946 C 302.125 77.864,300.899 82.644,297.307 87.800 C 295.927 89.780,294.130 92.390,293.313 93.600 C 292.496 94.810,291.725 95.890,291.599 96.000 C 291.473 96.110,290.333 97.730,289.066 99.600 C 287.798 101.470,285.325 105.070,283.569 107.600 C 281.812 110.130,279.759 113.100,279.006 114.200 C 277.804 115.955,275.690 118.987,274.406 120.800 C 272.645 123.285,268.718 128.927,266.192 132.600 C 260.621 140.702,258.739 143.391,257.666 144.784 C 257.080 145.545,256.510 146.362,256.400 146.599 C 255.474 148.594,252.902 151.599,252.200 151.506 C 251.476 151.410,249.624 149.096,243.714 140.901 C 242.881 139.747,241.480 137.816,240.600 136.611 C 239.720 135.406,238.280 133.414,237.400 132.185 C 236.520 130.956,235.611 129.736,235.381 129.475 C 235.151 129.214,234.352 128.100,233.607 127.000 C 232.862 125.900,232.150 124.910,232.024 124.800 C 231.720 124.534,228.876 120.626,227.447 118.511 C 226.100 116.516,226.074 116.609,229.288 111.978 C 230.670 109.987,232.430 107.386,233.200 106.198 C 233.970 105.009,235.510 102.723,236.622 101.118 C 237.735 99.513,239.495 96.940,240.534 95.400 C 241.572 93.860,242.642 92.290,242.911 91.912 C 243.180 91.533,244.210 90.039,245.200 88.591 C 246.190 87.144,247.675 85.036,248.500 83.908 C 249.325 82.779,250.000 81.688,250.000 81.483 C 250.000 81.279,250.720 80.251,251.600 79.200 C 252.480 78.149,253.200 77.177,253.200 77.040 C 253.200 75.718,258.647 69.603,261.115 68.155 C 263.887 66.528,281.095 65.727,290.365 66.793 M255.054 229.700 C 256.555 231.735,258.271 234.120,258.867 235.000 C 259.463 235.880,260.682 237.590,261.576 238.800 C 262.469 240.010,263.649 241.630,264.198 242.400 C 264.746 243.170,266.193 245.150,267.413 246.800 C 268.632 248.450,270.054 250.430,270.572 251.200 C 271.090 251.970,271.869 252.971,272.303 253.425 C 272.737 253.879,273.320 254.678,273.600 255.200 C 273.880 255.722,274.269 256.341,274.465 256.575 C 274.662 256.809,275.626 258.080,276.609 259.400 C 279.025 262.644,278.828 262.374,280.388 264.598 C 281.152 265.686,282.052 266.876,282.388 267.243 C 282.725 267.610,283.630 268.837,284.400 269.969 C 285.170 271.101,286.520 273.002,287.400 274.192 C 288.280 275.382,289.720 277.365,290.600 278.599 C 291.480 279.832,293.192 282.137,294.404 283.721 C 295.616 285.304,297.471 287.860,298.527 289.400 C 299.582 290.940,301.247 293.280,302.227 294.600 C 303.207 295.920,304.318 297.450,304.697 298.000 C 305.076 298.550,306.211 300.080,307.220 301.400 C 313.689 309.864,312.634 318.455,304.600 322.735 L 302.600 323.800 288.800 323.800 C 272.447 323.800,273.303 324.030,269.400 318.584 C 268.960 317.970,268.411 317.273,268.181 317.034 C 267.951 316.795,267.146 315.700,266.394 314.600 C 265.641 313.500,264.626 312.150,264.138 311.600 C 263.650 311.050,262.744 309.862,262.125 308.960 C 261.506 308.057,260.311 306.437,259.469 305.360 C 258.627 304.282,254.726 299.080,250.801 293.800 C 241.055 280.693,239.374 278.446,236.600 274.819 C 235.280 273.093,233.930 271.282,233.600 270.795 C 232.658 269.406,230.765 267.027,230.422 266.803 C 230.251 266.691,229.835 266.060,229.496 265.400 C 229.158 264.740,228.414 263.697,227.844 263.083 C 225.695 260.768,225.762 260.577,231.400 253.013 C 232.280 251.833,233.360 250.372,233.800 249.767 C 234.240 249.163,234.781 248.473,235.003 248.234 C 235.225 247.995,236.270 246.540,237.326 245.000 C 238.382 243.460,240.048 241.120,241.028 239.800 C 243.342 236.685,246.226 232.643,248.191 229.760 C 248.626 229.122,249.080 228.510,249.200 228.400 C 249.320 228.290,249.733 227.705,250.118 227.100 C 251.287 225.263,252.094 225.688,255.054 229.700 " stroke="none" fill="#f8f9f9" fill-rule="evenodd"></path><path id="path2" d="M250.118 227.100 C 249.733 227.705,249.320 228.290,249.200 228.400 C 249.080 228.510,248.626 229.122,248.191 229.760 C 246.226 232.643,243.342 236.685,241.028 239.800 C 240.048 241.120,238.382 243.460,237.326 245.000 C 236.270 246.540,235.225 247.995,235.003 248.234 C 234.781 248.473,234.240 249.163,233.800 249.767 C 233.360 250.372,232.280 251.833,231.400 253.013 C 225.762 260.577,225.695 260.768,227.844 263.083 C 228.414 263.697,229.158 264.740,229.496 265.400 C 229.835 266.060,230.251 266.691,230.422 266.803 C 230.765 267.027,232.658 269.406,233.600 270.795 C 233.930 271.282,235.280 273.093,236.600 274.819 C 239.374 278.446,241.055 280.693,250.801 293.800 C 254.726 299.080,258.627 304.282,259.469 305.360 C 260.311 306.437,261.506 308.057,262.125 308.960 C 262.744 309.862,263.650 311.050,264.138 311.600 C 264.626 312.150,265.641 313.500,266.394 314.600 C 267.146 315.700,267.951 316.795,268.181 317.034 C 268.411 317.273,268.960 317.970,269.400 318.584 C 273.303 324.030,272.447 323.800,288.800 323.800 L 302.600 323.800 304.600 322.735 C 312.634 318.455,313.689 309.864,307.220 301.400 C 306.211 300.080,305.076 298.550,304.697 298.000 C 304.318 297.450,303.207 295.920,302.227 294.600 C 301.247 293.280,299.582 290.940,298.527 289.400 C 297.471 287.860,295.616 285.304,294.404 283.721 C 293.192 282.137,291.480 279.832,290.600 278.599 C 289.720 277.365,288.280 275.382,287.400 274.192 C 286.520 273.002,285.170 271.101,284.400 269.969 C 283.630 268.837,282.725 267.610,282.388 267.243 C 282.052 266.876,281.152 265.686,280.388 264.598 C 278.828 262.374,279.025 262.644,276.609 259.400 C 275.626 258.080,274.662 256.809,274.465 256.575 C 274.269 256.341,273.880 255.722,273.600 255.200 C 273.320 254.678,272.737 253.879,272.303 253.425 C 271.869 252.971,271.090 251.970,270.572 251.200 C 270.054 250.430,268.632 248.450,267.413 246.800 C 266.193 245.150,264.746 243.170,264.198 242.400 C 263.649 241.630,262.469 240.010,261.576 238.800 C 260.682 237.590,259.463 235.880,258.867 235.000 C 253.023 226.373,251.472 224.973,250.118 227.100 " stroke="none" fill="#ec2685" fill-rule="evenodd"></path><path id="path3" d="M56.000 8.000 C 55.364 8.636,54.667 8.800,52.603 8.800 C 50.440 8.800,49.923 8.933,49.507 9.600 C 49.135 10.196,48.574 10.400,47.307 10.400 C 46.040 10.400,45.479 10.604,45.107 11.200 C 44.786 11.715,44.174 12.000,43.393 12.000 C 42.673 12.000,41.899 12.326,41.493 12.800 C 41.116 13.240,40.396 13.600,39.893 13.600 C 39.390 13.600,38.670 13.960,38.293 14.400 C 37.916 14.840,37.240 15.200,36.791 15.200 C 36.342 15.200,35.868 15.478,35.738 15.817 C 35.393 16.715,35.991 17.118,36.450 16.297 C 36.664 15.914,37.163 15.600,37.558 15.600 C 37.953 15.600,38.602 15.240,39.000 14.800 C 39.398 14.360,40.032 14.000,40.408 14.000 C 40.784 14.000,41.550 13.640,42.109 13.200 C 42.669 12.760,43.569 12.400,44.109 12.400 C 44.650 12.400,45.521 12.067,46.046 11.660 C 46.571 11.253,47.760 10.820,48.689 10.699 C 49.618 10.578,50.639 10.218,50.957 9.900 C 51.309 9.548,52.726 9.230,54.566 9.091 C 56.538 8.942,57.815 8.642,58.226 8.231 C 59.197 7.261,338.942 7.263,340.327 8.234 C 340.826 8.583,342.585 8.997,344.244 9.156 C 345.901 9.314,347.393 9.664,347.560 9.935 C 347.727 10.205,348.832 10.580,350.016 10.767 C 351.200 10.954,352.234 11.302,352.314 11.541 C 352.393 11.780,353.120 12.096,353.929 12.245 C 354.738 12.394,355.829 12.850,356.354 13.258 C 356.879 13.666,357.690 14.000,358.158 14.000 C 358.625 14.000,359.232 14.360,359.507 14.800 C 359.782 15.240,360.259 15.600,360.567 15.600 C 361.264 15.600,364.400 17.622,364.400 18.071 C 364.400 18.252,364.599 18.400,364.842 18.400 C 365.085 18.400,365.850 18.848,366.542 19.396 C 367.234 19.945,368.214 20.710,368.720 21.096 C 371.057 22.884,377.995 30.229,378.364 31.307 C 378.455 31.571,379.220 32.661,380.064 33.729 C 380.909 34.798,381.600 36.021,381.600 36.448 C 381.600 36.876,381.859 37.324,382.176 37.446 C 382.492 37.567,382.864 38.179,383.001 38.806 C 383.139 39.432,383.510 40.159,383.826 40.421 C 384.142 40.683,384.400 41.104,384.400 41.355 C 384.400 41.606,384.760 42.484,385.200 43.304 C 385.640 44.125,386.000 45.025,386.000 45.304 C 386.000 45.584,386.360 46.484,386.800 47.304 C 387.243 48.131,387.600 49.561,387.600 50.510 C 387.600 51.451,387.891 52.638,388.247 53.146 C 389.472 54.894,389.561 64.708,389.561 198.000 C 389.561 330.170,389.467 340.416,388.237 343.287 C 387.887 344.105,387.600 345.282,387.600 345.903 C 387.600 346.523,387.250 347.716,386.823 348.554 C 386.396 349.392,385.938 350.570,385.806 351.172 C 385.674 351.773,384.947 353.511,384.190 355.033 C 383.433 356.555,382.810 357.997,382.807 358.238 C 382.803 358.479,382.440 359.002,382.000 359.400 C 381.560 359.798,381.200 360.342,381.200 360.609 C 381.200 361.118,377.060 366.792,375.630 368.242 C 375.174 368.705,374.800 369.185,374.800 369.309 C 374.800 369.432,373.675 370.604,372.300 371.913 C 368.549 375.484,367.510 376.400,367.214 376.400 C 367.065 376.400,366.327 376.961,365.572 377.647 C 364.817 378.334,363.570 379.164,362.800 379.492 C 362.030 379.821,361.309 380.234,361.197 380.411 C 360.882 380.912,353.881 384.400,353.193 384.400 C 352.855 384.400,352.214 384.655,351.769 384.967 C 351.323 385.279,350.248 385.663,349.380 385.820 C 348.511 385.978,347.319 386.350,346.731 386.648 C 346.143 386.945,344.343 387.308,342.731 387.455 C 341.119 387.601,339.102 387.963,338.250 388.260 C 335.865 389.091,62.311 389.062,60.108 388.231 C 59.279 387.919,57.258 387.544,55.618 387.399 C 53.977 387.254,52.177 386.906,51.618 386.625 C 51.058 386.344,49.970 385.998,49.200 385.856 C 48.430 385.713,47.170 385.303,46.400 384.944 C 45.630 384.585,44.280 383.974,43.400 383.585 C 39.312 381.779,38.397 381.283,37.271 380.264 C 36.867 379.899,36.264 379.600,35.931 379.600 C 35.597 379.600,34.801 379.136,34.162 378.568 C 33.523 378.001,32.298 377.082,31.440 376.526 C 29.297 375.137,22.549 368.232,20.600 365.434 C 19.720 364.171,18.714 362.821,18.365 362.434 C 18.016 362.047,17.149 360.576,16.440 359.165 C 15.730 357.754,14.621 355.614,13.975 354.408 C 13.329 353.202,12.800 351.935,12.800 351.592 C 12.800 351.250,12.466 350.315,12.059 349.515 C 11.651 348.715,11.204 347.234,11.065 346.223 C 10.927 345.213,10.565 343.894,10.262 343.293 C 8.807 340.412,8.725 331.437,8.895 193.400 C 9.060 59.932,9.106 55.041,10.216 53.456 C 10.537 52.997,10.801 51.807,10.803 50.811 C 10.804 49.677,11.102 48.551,11.600 47.800 C 12.037 47.140,12.396 46.186,12.397 45.679 C 12.400 44.891,13.129 43.179,14.476 40.800 C 14.663 40.470,15.080 39.627,15.402 38.927 C 15.724 38.227,16.151 37.554,16.350 37.431 C 16.549 37.308,16.836 36.712,16.988 36.107 C 17.140 35.502,17.511 34.735,17.813 34.403 C 18.116 34.071,18.731 33.395,19.181 32.900 C 19.632 32.405,20.000 31.898,20.000 31.773 C 20.000 31.405,22.097 28.745,23.500 27.334 C 24.215 26.615,24.800 25.861,24.800 25.659 C 24.800 25.457,25.205 25.022,25.700 24.693 C 26.195 24.363,27.429 23.305,28.441 22.342 C 29.454 21.378,31.074 20.059,32.041 19.409 C 34.663 17.648,35.455 16.800,34.478 16.800 C 34.063 16.800,33.398 17.160,33.000 17.600 C 32.602 18.040,32.034 18.400,31.738 18.400 C 31.442 18.400,31.200 18.674,31.200 19.010 C 31.200 19.345,30.750 19.791,30.200 20.000 C 29.650 20.209,29.200 20.553,29.200 20.763 C 29.200 20.974,28.840 21.260,28.400 21.400 C 27.960 21.540,27.600 21.891,27.600 22.180 C 27.600 22.470,27.240 22.801,26.800 22.916 C 26.360 23.031,26.000 23.391,26.000 23.716 C 26.000 24.041,25.640 24.401,25.200 24.516 C 24.760 24.631,24.400 25.012,24.400 25.363 C 24.400 25.713,24.142 26.000,23.827 26.000 C 23.512 26.000,23.145 26.343,23.012 26.763 C 22.879 27.183,22.506 27.627,22.185 27.750 C 21.863 27.874,21.600 28.188,21.600 28.449 C 21.600 28.710,20.907 29.570,20.060 30.361 C 19.213 31.153,18.399 32.295,18.252 32.900 C 18.105 33.505,17.718 34.000,17.392 34.000 C 17.067 34.000,16.800 34.336,16.800 34.746 C 16.800 35.156,16.440 35.950,16.000 36.509 C 15.560 37.069,15.200 37.806,15.200 38.149 C 15.200 38.492,14.840 38.965,14.400 39.200 C 13.881 39.478,13.600 40.038,13.600 40.794 C 13.600 41.439,13.319 42.118,12.971 42.312 C 12.623 42.507,12.239 43.436,12.110 44.393 C 11.983 45.344,11.546 46.454,11.139 46.861 C 10.631 47.369,10.400 48.185,10.400 49.469 C 10.400 50.676,10.156 51.607,9.710 52.099 C 9.187 52.678,8.994 53.727,8.910 56.457 C 8.849 58.435,8.575 60.446,8.300 60.927 C 7.460 62.395,7.362 330.722,8.201 333.305 C 8.541 334.352,8.933 337.203,9.073 339.639 C 9.252 342.768,9.502 344.245,9.925 344.668 C 10.254 344.997,10.609 346.197,10.713 347.333 C 10.833 348.636,11.179 349.664,11.651 350.116 C 12.090 350.535,12.400 351.383,12.400 352.167 C 12.400 352.901,12.658 353.717,12.974 353.979 C 13.290 354.241,13.664 354.981,13.805 355.623 C 13.946 356.265,14.230 356.895,14.437 357.023 C 14.643 357.150,15.070 357.872,15.386 358.627 C 15.701 359.382,16.148 360.000,16.380 360.000 C 16.611 360.000,16.800 360.347,16.800 360.771 C 16.800 361.196,17.114 361.857,17.497 362.240 C 17.881 362.624,18.376 363.241,18.597 363.612 C 20.256 366.388,21.894 368.339,25.797 372.188 C 28.259 374.617,31.068 377.143,32.037 377.801 C 33.007 378.459,33.894 379.122,34.008 379.274 C 34.123 379.426,34.663 379.754,35.208 380.003 C 37.023 380.831,38.706 381.848,39.385 382.528 C 39.755 382.898,40.472 383.200,40.980 383.200 C 41.487 383.200,42.117 383.458,42.379 383.774 C 42.641 384.090,43.428 384.470,44.128 384.619 C 44.827 384.767,45.693 385.147,46.050 385.462 C 46.408 385.777,47.398 386.145,48.250 386.281 C 49.103 386.416,50.160 386.747,50.600 387.017 C 51.040 387.287,52.603 387.622,54.074 387.762 C 55.544 387.902,57.502 388.283,58.424 388.608 C 60.965 389.505,337.435 389.505,339.976 388.608 C 340.898 388.283,342.856 387.902,344.326 387.762 C 345.797 387.622,347.360 387.285,347.800 387.014 C 348.240 386.743,349.240 386.402,350.022 386.257 C 350.805 386.112,352.148 385.634,353.007 385.196 C 353.866 384.758,354.869 384.400,355.236 384.400 C 355.602 384.400,356.126 384.130,356.400 383.800 C 356.674 383.470,357.212 383.200,357.595 383.200 C 357.978 383.200,358.750 382.840,359.309 382.400 C 359.869 381.960,360.495 381.600,360.701 381.600 C 360.907 381.600,361.402 381.240,361.800 380.800 C 362.198 380.360,362.743 380.000,363.011 380.000 C 364.425 380.000,378.400 367.310,378.400 366.026 C 378.400 365.831,379.078 364.801,379.907 363.736 C 380.736 362.671,381.640 361.350,381.916 360.800 C 382.192 360.250,383.314 358.115,384.409 356.057 C 385.504 353.998,386.400 351.905,386.400 351.406 C 386.400 350.906,386.661 350.281,386.980 350.016 C 387.300 349.751,387.670 348.694,387.803 347.667 C 387.936 346.640,388.334 345.273,388.687 344.629 C 389.113 343.853,389.384 342.103,389.494 339.429 C 389.585 337.213,389.916 334.721,390.230 333.892 C 390.945 332.001,391.056 66.082,390.343 62.600 C 390.118 61.500,389.810 58.860,389.658 56.733 C 389.458 53.919,389.195 52.657,388.692 52.101 C 388.230 51.591,388.000 50.671,388.000 49.330 C 388.000 47.832,387.797 47.141,387.200 46.600 C 386.667 46.117,386.400 45.368,386.400 44.352 C 386.400 43.238,386.185 42.713,385.600 42.400 C 385.131 42.149,384.800 41.562,384.800 40.982 C 384.800 40.438,384.440 39.684,384.000 39.307 C 383.560 38.930,383.200 38.207,383.200 37.699 C 383.200 37.191,382.941 36.676,382.624 36.554 C 382.308 36.433,381.934 35.808,381.793 35.167 C 381.652 34.525,381.317 34.000,381.049 34.000 C 380.780 34.000,380.333 33.370,380.054 32.600 C 379.776 31.830,379.392 31.200,379.201 31.200 C 379.010 31.200,378.740 30.840,378.600 30.400 C 378.460 29.960,378.088 29.600,377.773 29.600 C 377.458 29.600,377.200 29.429,377.200 29.221 C 377.200 29.012,376.750 28.356,376.200 27.762 C 375.650 27.169,375.200 26.529,375.200 26.342 C 375.200 26.154,374.930 26.000,374.600 26.000 C 374.270 26.000,374.000 25.804,374.000 25.564 C 374.000 24.947,371.903 22.800,371.301 22.800 C 371.026 22.800,370.800 22.530,370.800 22.200 C 370.800 21.870,370.635 21.600,370.433 21.600 C 370.231 21.600,369.356 20.925,368.488 20.100 C 366.359 18.076,364.559 16.800,363.830 16.800 C 363.499 16.800,363.043 16.455,362.817 16.033 C 362.591 15.610,361.865 15.146,361.203 15.001 C 360.541 14.855,360.000 14.481,360.000 14.168 C 360.000 13.810,359.579 13.600,358.862 13.600 C 358.232 13.600,357.401 13.243,357.000 12.800 C 356.561 12.315,355.768 12.000,354.985 12.000 C 354.030 12.000,353.639 11.792,353.484 11.200 C 353.309 10.532,352.938 10.400,351.237 10.400 C 349.763 10.400,349.200 10.246,349.200 9.843 C 349.200 9.059,348.297 8.800,345.567 8.800 C 343.733 8.800,343.020 8.620,342.400 8.000 C 341.603 7.203,341.067 7.200,199.200 7.200 C 57.333 7.200,56.797 7.203,56.000 8.000 M116.300 66.699 C 118.995 66.768,123.405 66.768,126.100 66.699 C 128.795 66.630,126.590 66.573,121.200 66.573 C 115.810 66.573,113.605 66.630,116.300 66.699 M265.315 66.825 C 262.410 67.203,260.084 68.449,257.748 70.881 C 256.145 72.549,253.200 76.538,253.200 77.040 C 253.200 77.177,252.480 78.149,251.600 79.200 C 250.720 80.251,250.000 81.279,250.000 81.483 C 250.000 81.688,249.325 82.779,248.500 83.908 C 247.675 85.036,246.190 87.144,245.200 88.591 C 244.210 90.039,243.180 91.533,242.911 91.912 C 242.642 92.290,241.572 93.860,240.534 95.400 C 239.495 96.940,237.735 99.513,236.622 101.118 C 235.510 102.723,233.970 105.009,233.200 106.198 C 232.430 107.386,230.670 109.987,229.288 111.978 C 226.074 116.609,226.100 116.516,227.447 118.511 C 228.876 120.626,231.720 124.534,232.024 124.800 C 232.150 124.910,232.862 125.900,233.607 127.000 C 234.352 128.100,235.151 129.214,235.381 129.475 C 235.611 129.736,236.520 130.956,237.400 132.185 C 238.280 133.414,239.720 135.406,240.600 136.611 C 241.480 137.816,242.881 139.747,243.714 140.901 C 249.624 149.096,251.476 151.410,252.200 151.506 C 252.902 151.599,255.474 148.594,256.400 146.599 C 256.510 146.362,257.080 145.545,257.666 144.784 C 258.739 143.391,260.621 140.702,266.192 132.600 C 268.718 128.927,272.645 123.285,274.406 120.800 C 275.690 118.987,277.804 115.955,279.006 114.200 C 279.759 113.100,281.812 110.130,283.569 107.600 C 285.325 105.070,287.798 101.470,289.066 99.600 C 290.333 97.730,291.473 96.110,291.599 96.000 C 291.725 95.890,292.496 94.810,293.313 93.600 C 294.130 92.390,295.927 89.780,297.307 87.800 C 300.899 82.644,302.125 77.864,300.602 74.946 C 300.274 74.316,300.004 73.507,300.002 73.148 C 299.999 72.343,297.366 69.586,295.282 68.207 C 292.765 66.541,274.105 65.681,265.315 66.825 M107.700 67.076 C 108.085 67.176,108.715 67.176,109.100 67.076 C 109.485 66.975,109.170 66.893,108.400 66.893 C 107.630 66.893,107.315 66.975,107.700 67.076 M98.509 77.200 C 98.509 78.190,98.587 78.595,98.682 78.100 C 98.778 77.605,98.778 76.795,98.682 76.300 C 98.587 75.805,98.509 76.210,98.509 77.200 M98.815 82.000 C 98.821 82.330,99.090 82.949,99.413 83.376 C 100.168 84.375,100.163 84.005,99.402 82.546 C 99.074 81.916,98.810 81.670,98.815 82.000 M153.200 86.800 C 153.897 87.680,154.557 88.400,154.667 88.400 C 154.777 88.400,154.297 87.680,153.600 86.800 C 152.903 85.920,152.243 85.200,152.133 85.200 C 152.023 85.200,152.503 85.920,153.200 86.800 M102.817 89.363 C 103.491 90.362,104.215 91.286,104.425 91.416 C 104.636 91.546,104.257 90.835,103.583 89.837 C 102.909 88.838,102.185 87.914,101.975 87.784 C 101.764 87.654,102.143 88.365,102.817 89.363 M116.399 108.300 C 116.922 109.015,117.413 109.600,117.489 109.600 C 117.793 109.600,116.801 108.100,116.145 107.567 C 115.713 107.216,115.810 107.496,116.399 108.300 M131.200 128.800 C 131.897 129.680,132.557 130.400,132.667 130.400 C 132.777 130.400,132.297 129.680,131.600 128.800 C 130.903 127.920,130.243 127.200,130.133 127.200 C 130.023 127.200,130.503 127.920,131.200 128.800 M187.600 134.583 C 187.600 134.743,187.960 135.331,188.400 135.891 C 188.840 136.450,189.200 136.777,189.200 136.617 C 189.200 136.457,188.840 135.869,188.400 135.309 C 187.960 134.750,187.600 134.423,187.600 134.583 M142.723 230.300 C 142.018 231.121,141.490 232.000,141.701 232.000 C 141.783 232.000,142.249 231.460,142.737 230.800 C 143.701 229.496,143.692 229.172,142.723 230.300 M140.175 233.868 C 139.559 234.676,139.259 235.211,139.509 235.056 C 140.021 234.740,141.753 232.400,141.475 232.400 C 141.376 232.400,140.791 233.061,140.175 233.868 M184.175 245.468 C 183.559 246.276,183.259 246.811,183.509 246.656 C 184.021 246.340,185.753 244.000,185.475 244.000 C 185.376 244.000,184.791 244.661,184.175 245.468 M131.956 245.500 C 130.746 246.990,129.512 248.901,129.925 248.647 C 130.163 248.499,130.901 247.574,131.565 246.590 C 132.793 244.770,132.987 244.230,131.956 245.500 M128.000 250.800 C 127.303 251.680,126.823 252.400,126.933 252.400 C 127.043 252.400,127.703 251.680,128.400 250.800 C 129.097 249.920,129.577 249.200,129.467 249.200 C 129.357 249.200,128.697 249.920,128.000 250.800 M119.556 262.700 C 118.346 264.190,117.112 266.101,117.525 265.847 C 117.763 265.699,118.501 264.774,119.165 263.790 C 120.393 261.970,120.587 261.430,119.556 262.700 M167.923 267.900 C 167.218 268.721,166.690 269.600,166.901 269.600 C 166.983 269.600,167.449 269.060,167.937 268.400 C 168.901 267.096,168.892 266.772,167.923 267.900 M114.723 269.500 C 114.018 270.321,113.490 271.200,113.701 271.200 C 113.783 271.200,114.249 270.660,114.737 270.000 C 115.701 268.696,115.692 268.372,114.723 269.500 M102.784 286.286 C 102.084 287.323,101.792 287.939,102.135 287.654 C 102.763 287.133,104.510 284.400,104.215 284.400 C 104.128 284.400,103.484 285.249,102.784 286.286 M95.956 295.900 C 94.746 297.390,93.512 299.301,93.925 299.047 C 94.163 298.899,94.901 297.974,95.565 296.990 C 96.793 295.170,96.987 294.630,95.956 295.900 M90.207 303.826 C 89.609 304.611,89.182 305.316,89.260 305.393 C 89.337 305.470,89.907 304.828,90.526 303.967 C 91.934 302.008,91.679 301.896,90.207 303.826 M141.599 304.100 C 141.010 304.904,140.913 305.184,141.345 304.833 C 142.001 304.300,142.993 302.800,142.689 302.800 C 142.613 302.800,142.122 303.385,141.599 304.100 M88.218 307.561 C 87.828 308.424,87.606 309.371,87.723 309.665 C 87.878 310.054,87.945 310.025,87.968 309.561 C 87.986 309.210,88.289 308.344,88.642 307.637 C 88.995 306.929,89.203 306.270,89.104 306.171 C 89.006 306.072,88.607 306.698,88.218 307.561 M135.123 313.100 C 134.418 313.921,133.890 314.800,134.101 314.800 C 134.183 314.800,134.649 314.260,135.137 313.600 C 136.101 312.296,136.092 311.972,135.123 313.100 M87.663 314.000 C 87.647 314.550,87.978 315.630,88.400 316.400 C 89.300 318.045,89.454 317.680,88.627 315.860 C 88.312 315.167,87.973 314.240,87.874 313.800 C 87.729 313.162,87.687 313.202,87.663 314.000 M130.774 318.900 C 129.810 320.055,129.339 320.747,129.726 320.438 C 130.504 319.818,132.968 316.800,132.696 316.800 C 132.602 316.800,131.737 317.745,130.774 318.900 M93.600 322.176 C 93.600 322.543,95.944 323.601,96.680 323.566 C 97.159 323.543,97.057 323.427,96.377 323.221 C 95.814 323.050,94.959 322.699,94.477 322.441 C 93.994 322.183,93.600 322.064,93.600 322.176 M104.500 323.899 C 107.745 323.966,113.055 323.966,116.300 323.899 C 119.545 323.832,116.890 323.777,110.400 323.777 C 103.910 323.777,101.255 323.832,104.500 323.899 " stroke="none" fill="#8cc369" fill-rule="evenodd"></path><path id="path4" d="M61.011 3.095 C 59.477 3.175,58.127 3.378,58.011 3.547 C 57.895 3.715,55.122 4.059,51.848 4.312 C 47.574 4.641,45.705 4.943,45.219 5.383 C 44.846 5.720,43.700 6.111,42.671 6.252 C 41.642 6.393,40.800 6.657,40.800 6.839 C 40.800 7.021,40.080 7.363,39.200 7.600 C 38.320 7.837,37.600 8.190,37.600 8.384 C 37.600 8.578,37.072 8.852,36.428 8.994 C 35.783 9.136,35.050 9.498,34.800 9.800 C 34.550 10.102,33.836 10.460,33.214 10.597 C 32.592 10.734,31.766 11.195,31.379 11.623 C 30.993 12.050,30.293 12.400,29.824 12.400 C 29.322 12.400,28.081 13.302,26.800 14.600 C 25.605 15.810,24.282 16.800,23.860 16.800 C 22.841 16.800,15.637 23.889,15.337 25.188 C 15.208 25.745,14.146 27.190,12.977 28.400 C 11.807 29.610,10.732 31.088,10.586 31.684 C 10.441 32.280,10.069 32.977,9.761 33.233 C 9.452 33.489,9.200 34.035,9.200 34.448 C 9.200 34.860,8.592 35.873,7.849 36.699 C 6.988 37.656,6.397 38.807,6.218 39.874 C 6.064 40.795,5.592 41.948,5.169 42.436 C 4.736 42.935,4.400 43.915,4.400 44.677 C 4.400 45.423,4.057 46.520,3.637 47.116 C 3.071 47.921,2.805 49.230,2.606 52.197 C 2.458 54.395,2.127 56.447,1.869 56.758 C 1.183 57.584,1.190 345.624,1.876 346.450 C 2.137 346.765,2.478 348.865,2.633 351.117 C 2.849 354.244,3.090 355.412,3.658 356.066 C 4.071 356.543,4.400 357.532,4.400 358.298 C 4.400 359.068,4.752 360.122,5.200 360.691 C 5.640 361.250,6.000 361.970,6.000 362.291 C 6.000 362.611,6.360 363.331,6.800 363.891 C 7.240 364.450,7.600 365.170,7.600 365.491 C 7.600 365.811,7.960 366.531,8.400 367.091 C 8.840 367.650,9.200 368.422,9.200 368.805 C 9.200 369.188,9.452 369.711,9.761 369.967 C 10.069 370.223,10.440 370.920,10.585 371.516 C 10.730 372.112,12.166 373.950,13.777 375.600 C 15.387 377.250,16.812 379.065,16.943 379.633 C 17.236 380.899,21.272 384.800,22.290 384.800 C 22.695 384.800,23.998 385.783,25.184 386.984 C 26.370 388.185,27.822 389.273,28.410 389.402 C 28.998 389.531,30.081 390.259,30.818 391.018 C 31.554 391.778,32.457 392.400,32.825 392.400 C 33.192 392.400,33.950 392.760,34.509 393.200 C 35.069 393.640,35.773 394.000,36.074 394.000 C 36.375 394.000,36.977 394.247,37.411 394.550 C 37.845 394.852,38.953 395.226,39.874 395.381 C 40.795 395.535,41.948 396.008,42.436 396.431 C 42.940 396.869,43.915 397.200,44.698 397.200 C 45.455 397.200,46.509 397.542,47.040 397.960 C 47.871 398.613,49.015 398.761,55.203 399.011 C 59.161 399.171,62.400 399.459,62.400 399.651 C 62.400 399.849,121.616 400.000,199.200 400.000 C 276.784 400.000,336.000 399.849,336.000 399.651 C 336.000 399.459,339.239 399.171,343.197 399.011 C 349.385 398.761,350.529 398.613,351.360 397.960 C 351.891 397.542,352.945 397.200,353.702 397.200 C 354.503 397.200,355.463 396.866,356.000 396.400 C 356.537 395.934,357.497 395.600,358.298 395.600 C 359.068 395.600,360.122 395.248,360.691 394.800 C 361.250 394.360,361.970 394.000,362.291 394.000 C 362.611 394.000,363.331 393.640,363.891 393.200 C 364.450 392.760,365.208 392.400,365.575 392.400 C 365.943 392.400,366.846 391.778,367.582 391.018 C 368.319 390.259,369.407 389.530,370.000 389.400 C 370.593 389.270,371.673 388.550,372.400 387.800 C 373.127 387.050,374.209 386.330,374.806 386.199 C 376.169 385.899,383.200 378.814,383.200 377.740 C 383.200 377.318,384.183 376.002,385.384 374.816 C 386.585 373.630,387.673 372.178,387.802 371.590 C 387.931 371.002,388.659 369.919,389.418 369.182 C 390.178 368.446,390.800 367.450,390.800 366.971 C 390.800 366.491,391.050 365.890,391.357 365.636 C 391.663 365.382,392.031 364.388,392.175 363.427 C 392.319 362.466,392.789 361.274,393.219 360.779 C 393.648 360.283,394.000 359.558,394.000 359.167 C 394.000 358.777,394.258 358.199,394.574 357.883 C 394.890 357.568,395.272 356.160,395.425 354.755 C 395.577 353.350,395.954 351.910,396.262 351.556 C 397.480 350.157,397.577 339.127,397.573 201.600 C 397.570 64.444,397.475 53.430,396.277 51.546 C 395.946 51.026,395.552 49.483,395.401 48.118 C 395.249 46.753,394.872 45.426,394.563 45.169 C 394.253 44.912,394.000 44.392,394.000 44.012 C 394.000 43.633,393.643 42.911,393.207 42.408 C 392.770 41.905,392.299 40.628,392.158 39.571 C 392.017 38.505,391.657 37.554,391.352 37.437 C 391.048 37.320,390.800 36.805,390.800 36.291 C 390.800 35.751,390.217 34.792,389.418 34.018 C 388.659 33.281,387.930 32.193,387.800 31.600 C 387.670 31.007,386.941 29.919,386.182 29.182 C 385.422 28.446,384.800 27.491,384.800 27.060 C 384.800 26.025,376.130 17.242,374.806 16.936 C 374.253 16.808,372.810 15.746,371.600 14.577 C 370.390 13.407,368.912 12.332,368.316 12.186 C 367.720 12.041,367.033 11.681,366.789 11.386 C 366.545 11.092,365.817 10.736,365.172 10.594 C 364.528 10.452,364.000 10.178,364.000 9.984 C 364.000 9.791,363.280 9.416,362.400 9.153 C 361.520 8.889,360.800 8.529,360.800 8.352 C 360.800 8.175,360.080 7.837,359.200 7.600 C 358.320 7.363,357.600 7.021,357.600 6.839 C 357.600 6.657,356.758 6.393,355.729 6.252 C 354.700 6.111,353.554 5.720,353.181 5.383 C 352.695 4.943,350.826 4.641,346.552 4.312 C 343.278 4.059,340.472 3.661,340.315 3.427 C 340.047 3.027,68.478 2.704,61.011 3.095 M342.400 8.000 C 343.020 8.620,343.733 8.800,345.567 8.800 C 348.297 8.800,349.200 9.059,349.200 9.843 C 349.200 10.246,349.763 10.400,351.237 10.400 C 352.938 10.400,353.309 10.532,353.484 11.200 C 353.639 11.792,354.030 12.000,354.985 12.000 C 355.768 12.000,356.561 12.315,357.000 12.800 C 357.401 13.243,358.232 13.600,358.862 13.600 C 359.579 13.600,360.000 13.810,360.000 14.168 C 360.000 14.481,360.541 14.855,361.203 15.001 C 361.865 15.146,362.591 15.610,362.817 16.033 C 363.043 16.455,363.499 16.800,363.830 16.800 C 364.559 16.800,366.359 18.076,368.488 20.100 C 369.356 20.925,370.231 21.600,370.433 21.600 C 370.635 21.600,370.800 21.870,370.800 22.200 C 370.800 22.530,371.026 22.800,371.301 22.800 C 371.903 22.800,374.000 24.947,374.000 25.564 C 374.000 25.804,374.270 26.000,374.600 26.000 C 374.930 26.000,375.200 26.154,375.200 26.342 C 375.200 26.529,375.650 27.169,376.200 27.762 C 376.750 28.356,377.200 29.012,377.200 29.221 C 377.200 29.429,377.458 29.600,377.773 29.600 C 378.088 29.600,378.460 29.960,378.600 30.400 C 378.740 30.840,379.010 31.200,379.201 31.200 C 379.392 31.200,379.776 31.830,380.054 32.600 C 380.333 33.370,380.780 34.000,381.049 34.000 C 381.317 34.000,381.652 34.525,381.793 35.167 C 381.934 35.808,382.308 36.433,382.624 36.554 C 382.941 36.676,383.200 37.191,383.200 37.699 C 383.200 38.207,383.560 38.930,384.000 39.307 C 384.440 39.684,384.800 40.438,384.800 40.982 C 384.800 41.562,385.131 42.149,385.600 42.400 C 386.185 42.713,386.400 43.238,386.400 44.352 C 386.400 45.368,386.667 46.117,387.200 46.600 C 387.797 47.141,388.000 47.832,388.000 49.330 C 388.000 50.671,388.230 51.591,388.692 52.101 C 389.195 52.657,389.458 53.919,389.658 56.733 C 389.810 58.860,390.118 61.500,390.343 62.600 C 391.056 66.082,390.945 332.001,390.230 333.892 C 389.916 334.721,389.585 337.213,389.494 339.429 C 389.384 342.103,389.113 343.853,388.687 344.629 C 388.334 345.273,387.936 346.640,387.803 347.667 C 387.670 348.694,387.300 349.751,386.980 350.016 C 386.661 350.281,386.400 350.906,386.400 351.406 C 386.400 351.905,385.504 353.998,384.409 356.057 C 383.314 358.115,382.192 360.250,381.916 360.800 C 381.640 361.350,380.736 362.671,379.907 363.736 C 379.078 364.801,378.400 365.831,378.400 366.026 C 378.400 367.310,364.425 380.000,363.011 380.000 C 362.743 380.000,362.198 380.360,361.800 380.800 C 361.402 381.240,360.907 381.600,360.701 381.600 C 360.495 381.600,359.869 381.960,359.309 382.400 C 358.750 382.840,357.978 383.200,357.595 383.200 C 357.212 383.200,356.674 383.470,356.400 383.800 C 356.126 384.130,355.602 384.400,355.236 384.400 C 354.869 384.400,353.866 384.758,353.007 385.196 C 352.148 385.634,350.805 386.112,350.022 386.257 C 349.240 386.402,348.240 386.743,347.800 387.014 C 347.360 387.285,345.797 387.622,344.326 387.762 C 342.856 387.902,340.898 388.283,339.976 388.608 C 337.435 389.505,60.965 389.505,58.424 388.608 C 57.502 388.283,55.544 387.902,54.074 387.762 C 52.603 387.622,51.040 387.287,50.600 387.017 C 50.160 386.747,49.103 386.416,48.250 386.281 C 47.398 386.145,46.408 385.777,46.050 385.462 C 45.693 385.147,44.827 384.767,44.128 384.619 C 43.428 384.470,42.641 384.090,42.379 383.774 C 42.117 383.458,41.487 383.200,40.980 383.200 C 40.472 383.200,39.755 382.898,39.385 382.528 C 38.706 381.848,37.023 380.831,35.208 380.003 C 34.663 379.754,34.123 379.426,34.008 379.274 C 33.894 379.122,33.007 378.459,32.037 377.801 C 31.068 377.143,28.259 374.617,25.797 372.188 C 21.894 368.339,20.256 366.388,18.597 363.612 C 18.376 363.241,17.881 362.624,17.497 362.240 C 17.114 361.857,16.800 361.196,16.800 360.771 C 16.800 360.347,16.611 360.000,16.380 360.000 C 16.148 360.000,15.701 359.382,15.386 358.627 C 15.070 357.872,14.643 357.150,14.437 357.023 C 14.230 356.895,13.946 356.265,13.805 355.623 C 13.664 354.981,13.290 354.241,12.974 353.979 C 12.658 353.717,12.400 352.901,12.400 352.167 C 12.400 351.383,12.090 350.535,11.651 350.116 C 11.179 349.664,10.833 348.636,10.713 347.333 C 10.609 346.197,10.254 344.997,9.925 344.668 C 9.502 344.245,9.252 342.768,9.073 339.639 C 8.933 337.203,8.541 334.352,8.201 333.305 C 7.362 330.722,7.460 62.395,8.300 60.927 C 8.575 60.446,8.849 58.435,8.910 56.457 C 8.994 53.727,9.187 52.678,9.710 52.099 C 10.156 51.607,10.400 50.676,10.400 49.469 C 10.400 48.185,10.631 47.369,11.139 46.861 C 11.546 46.454,11.983 45.344,12.110 44.393 C 12.239 43.436,12.623 42.507,12.971 42.312 C 13.319 42.118,13.600 41.439,13.600 40.794 C 13.600 40.038,13.881 39.478,14.400 39.200 C 14.840 38.965,15.200 38.492,15.200 38.149 C 15.200 37.806,15.560 37.069,16.000 36.509 C 16.440 35.950,16.800 35.156,16.800 34.746 C 16.800 34.336,17.067 34.000,17.392 34.000 C 17.718 34.000,18.105 33.505,18.252 32.900 C 18.399 32.295,19.213 31.153,20.060 30.361 C 20.907 29.570,21.600 28.710,21.600 28.449 C 21.600 28.188,21.863 27.874,22.185 27.750 C 22.506 27.627,22.879 27.183,23.012 26.763 C 23.145 26.343,23.512 26.000,23.827 26.000 C 24.142 26.000,24.400 25.713,24.400 25.363 C 24.400 25.012,24.760 24.631,25.200 24.516 C 25.640 24.401,26.000 24.041,26.000 23.716 C 26.000 23.391,26.360 23.031,26.800 22.916 C 27.240 22.801,27.600 22.470,27.600 22.180 C 27.600 21.891,27.960 21.540,28.400 21.400 C 28.840 21.260,29.200 20.974,29.200 20.763 C 29.200 20.553,29.650 20.209,30.200 20.000 C 30.750 19.791,31.200 19.345,31.200 19.010 C 31.200 18.674,31.442 18.400,31.738 18.400 C 32.034 18.400,32.602 18.040,33.000 17.600 C 33.398 17.160,34.125 16.800,34.615 16.800 C 35.170 16.800,35.586 16.498,35.716 16.000 C 35.841 15.520,36.262 15.200,36.766 15.200 C 37.229 15.200,37.916 14.840,38.293 14.400 C 38.670 13.960,39.390 13.600,39.893 13.600 C 40.396 13.600,41.116 13.240,41.493 12.800 C 41.899 12.326,42.673 12.000,43.393 12.000 C 44.174 12.000,44.786 11.715,45.107 11.200 C 45.479 10.604,46.040 10.400,47.307 10.400 C 48.574 10.400,49.135 10.196,49.507 9.600 C 49.923 8.933,50.440 8.800,52.603 8.800 C 54.667 8.800,55.364 8.636,56.000 8.000 C 56.797 7.203,57.333 7.200,199.200 7.200 C 341.067 7.200,341.603 7.203,342.400 8.000 M108.000 67.160 C 101.432 68.189,96.556 76.820,99.364 82.448 C 99.714 83.149,100.000 84.034,100.000 84.413 C 100.000 84.793,100.765 86.109,101.700 87.338 C 102.635 88.567,104.030 90.485,104.800 91.600 C 106.142 93.543,107.771 95.782,110.800 99.840 C 111.570 100.872,112.335 102.005,112.501 102.358 C 112.666 102.711,113.613 104.080,114.606 105.400 C 115.599 106.720,116.837 108.430,117.358 109.200 C 118.183 110.420,120.067 112.923,121.141 114.225 C 121.334 114.459,121.720 115.078,122.000 115.600 C 122.280 116.122,122.669 116.741,122.865 116.975 C 123.340 117.541,126.209 121.414,128.200 124.177 C 129.080 125.398,130.520 127.377,131.400 128.574 C 132.280 129.770,133.630 131.671,134.400 132.797 C 136.559 135.954,137.276 136.858,137.468 136.666 C 137.693 136.440,134.365 131.505,133.701 131.080 C 133.425 130.904,133.200 130.508,133.200 130.200 C 133.200 129.892,132.975 129.496,132.700 129.320 C 132.425 129.144,132.020 128.706,131.800 128.346 C 130.356 125.988,128.189 123.094,127.737 122.920 C 127.441 122.807,127.200 122.374,127.200 121.957 C 127.200 121.541,126.885 120.878,126.500 120.484 C 125.522 119.483,122.400 114.947,122.400 114.525 C 122.400 114.334,122.040 113.870,121.600 113.493 C 121.160 113.116,120.800 112.452,120.800 112.018 C 120.800 111.584,120.440 111.035,120.000 110.800 C 119.560 110.565,119.200 110.103,119.200 109.773 C 119.200 109.444,118.937 109.074,118.615 108.950 C 118.294 108.827,117.921 108.383,117.788 107.963 C 117.655 107.543,117.288 107.200,116.973 107.200 C 116.658 107.200,116.399 106.885,116.398 106.500 C 116.396 106.115,116.126 105.284,115.798 104.654 C 115.294 103.688,115.200 100.732,115.200 85.812 L 115.200 68.116 117.900 67.861 C 123.164 67.364,135.355 67.554,136.211 68.146 C 136.645 68.446,137.450 68.830,138.000 68.997 C 139.041 69.315,142.559 72.356,143.600 73.838 C 143.930 74.308,144.721 75.482,145.359 76.446 C 145.996 77.411,146.986 78.765,147.559 79.457 C 148.131 80.148,148.915 81.129,149.300 81.638 C 149.685 82.147,150.000 82.430,150.000 82.267 C 150.000 82.104,149.145 80.839,148.100 79.455 C 147.055 78.071,145.660 76.146,145.000 75.177 C 143.212 72.552,139.909 69.451,137.518 68.151 L 135.400 67.000 122.600 66.939 C 115.560 66.905,108.990 67.005,108.000 67.160 M151.217 84.563 C 151.891 85.562,152.615 86.486,152.825 86.616 C 153.036 86.746,152.657 86.035,151.983 85.037 C 151.309 84.038,150.585 83.114,150.375 82.984 C 150.164 82.854,150.543 83.565,151.217 84.563 M154.400 88.711 C 154.400 88.955,154.867 89.660,155.437 90.278 L 156.473 91.400 155.566 90.000 C 154.385 88.177,154.400 88.194,154.400 88.711 M158.759 94.800 C 159.412 95.790,160.514 97.230,161.207 98.000 C 162.253 99.161,162.206 99.038,160.934 97.280 C 158.716 94.214,157.334 92.638,158.759 94.800 M163.199 101.100 C 163.722 101.815,164.213 102.400,164.289 102.400 C 164.593 102.400,163.601 100.900,162.945 100.367 C 162.513 100.016,162.610 100.296,163.199 101.100 M137.616 137.251 C 137.607 137.390,138.635 138.878,139.900 140.558 C 143.129 144.847,145.041 147.510,146.393 149.600 C 147.034 150.590,148.112 152.030,148.790 152.800 L 150.022 154.200 148.791 152.400 C 145.566 147.683,144.716 146.457,143.387 144.600 C 142.600 143.500,141.532 141.970,141.015 141.200 C 139.873 139.500,137.639 136.904,137.616 137.251 M151.600 156.800 C 152.297 157.680,152.957 158.400,153.067 158.400 C 153.177 158.400,152.697 157.680,152.000 156.800 C 151.303 155.920,150.643 155.200,150.533 155.200 C 150.423 155.200,150.903 155.920,151.600 156.800 M160.399 169.100 C 160.922 169.815,161.413 170.400,161.489 170.400 C 161.793 170.400,160.801 168.900,160.145 168.367 C 159.713 168.016,159.810 168.296,160.399 169.100 M166.839 178.176 C 167.301 178.959,167.756 179.600,167.850 179.600 C 168.134 179.600,166.836 177.269,166.402 177.001 C 166.180 176.864,166.377 177.393,166.839 178.176 M161.999 203.700 C 161.410 204.504,161.313 204.784,161.745 204.433 C 162.401 203.900,163.393 202.400,163.089 202.400 C 163.013 202.400,162.522 202.985,161.999 203.700 M152.329 217.376 C 152.038 217.693,151.390 218.548,150.890 219.276 C 150.389 220.004,149.063 221.860,147.944 223.400 C 146.825 224.940,145.721 226.605,145.491 227.100 C 145.260 227.595,144.925 228.000,144.746 228.000 C 144.567 228.000,144.133 228.585,143.781 229.300 L 143.141 230.600 144.209 229.288 C 145.745 227.401,147.844 224.472,149.107 222.455 C 149.708 221.495,150.890 219.830,151.734 218.755 C 153.157 216.941,153.538 216.058,152.329 217.376 M140.579 233.850 C 139.212 235.778,136.266 239.774,135.310 241.000 C 135.138 241.220,134.103 242.750,133.008 244.400 C 131.914 246.050,130.112 248.570,129.004 250.000 C 127.896 251.430,126.452 253.410,125.795 254.400 C 125.138 255.390,124.463 256.380,124.295 256.600 C 123.127 258.133,121.596 260.256,120.400 262.000 C 119.630 263.123,118.550 264.646,118.000 265.385 C 116.606 267.257,110.233 276.222,107.668 279.920 C 106.495 281.610,105.405 283.084,105.247 283.196 C 105.088 283.308,104.525 284.120,103.996 285.000 C 103.467 285.880,102.396 287.443,101.617 288.474 C 100.838 289.504,99.750 291.000,99.200 291.797 C 98.650 292.595,98.016 293.462,97.791 293.724 C 97.566 293.986,96.727 295.190,95.926 296.400 C 95.126 297.610,94.140 298.964,93.735 299.409 C 92.489 300.780,89.306 305.744,88.996 306.800 C 88.834 307.350,88.499 308.053,88.251 308.362 C 87.563 309.219,87.762 314.384,88.538 315.800 C 88.899 316.460,89.196 317.222,89.198 317.493 C 89.202 318.313,92.482 321.439,94.400 322.451 C 96.178 323.388,96.367 323.401,109.884 323.519 L 123.567 323.639 125.884 322.568 C 128.387 321.412,131.380 318.573,133.772 315.086 C 134.560 313.939,136.002 311.920,136.979 310.600 C 137.955 309.280,139.789 306.703,141.055 304.874 C 142.320 303.045,143.768 301.104,144.271 300.561 C 144.774 300.019,145.371 299.228,145.597 298.806 C 145.823 298.383,146.907 296.865,148.004 295.433 C 149.102 294.001,150.000 292.729,150.000 292.606 C 150.000 292.483,150.917 291.216,152.038 289.789 C 153.159 288.363,153.834 287.290,153.538 287.404 C 153.242 287.519,152.555 288.285,152.010 289.106 C 151.466 289.928,150.431 291.339,149.710 292.241 C 148.990 293.144,148.400 294.012,148.400 294.169 C 148.400 294.327,147.680 295.310,146.800 296.354 C 145.920 297.398,145.200 298.387,145.200 298.553 C 145.200 298.718,144.435 299.818,143.500 300.996 C 142.565 302.175,141.080 304.164,140.200 305.418 C 139.320 306.671,138.319 308.024,137.975 308.423 C 137.631 308.823,137.001 309.638,136.575 310.236 C 136.149 310.833,135.530 311.615,135.200 311.974 C 134.384 312.862,132.400 315.783,132.400 316.097 C 132.400 317.078,127.163 321.600,126.026 321.600 C 125.283 321.600,124.681 321.844,124.545 322.200 C 124.359 322.685,123.439 322.800,119.757 322.800 L 115.200 322.800 115.200 296.987 C 115.200 274.412,115.275 271.146,115.800 270.945 C 116.130 270.818,116.400 270.374,116.400 269.957 C 116.400 269.541,116.662 269.200,116.982 269.200 C 117.328 269.200,117.668 268.644,117.821 267.828 C 117.963 267.073,118.331 266.359,118.639 266.240 C 118.948 266.122,119.200 265.777,119.200 265.474 C 119.200 265.171,119.560 264.507,120.000 264.000 C 120.440 263.493,120.800 262.841,120.800 262.553 C 120.800 262.264,121.160 261.835,121.600 261.600 C 122.040 261.365,122.400 260.951,122.400 260.682 C 122.400 260.413,122.760 259.968,123.200 259.693 C 123.640 259.418,124.000 258.857,124.000 258.446 C 124.000 258.034,124.264 257.479,124.586 257.212 C 125.098 256.787,127.445 253.538,128.600 251.655 C 128.820 251.296,129.675 250.124,130.500 249.049 C 131.325 247.975,132.000 246.868,132.000 246.591 C 132.000 246.313,132.270 245.982,132.600 245.855 C 132.930 245.729,133.200 245.420,133.200 245.170 C 133.200 244.919,133.920 243.810,134.800 242.705 C 135.680 241.600,136.400 240.449,136.400 240.148 C 136.400 239.846,136.550 239.600,136.733 239.600 C 136.916 239.600,137.642 238.745,138.347 237.700 C 139.051 236.655,140.265 234.928,141.043 233.863 C 141.822 232.797,142.391 231.858,142.308 231.775 C 142.226 231.692,141.447 232.626,140.579 233.850 M181.200 249.200 C 180.503 250.080,180.023 250.800,180.133 250.800 C 180.243 250.800,180.903 250.080,181.600 249.200 C 182.297 248.320,182.777 247.600,182.667 247.600 C 182.557 247.600,181.897 248.320,181.200 249.200 M164.723 271.900 C 164.018 272.721,163.490 273.600,163.701 273.600 C 163.783 273.600,164.249 273.060,164.737 272.400 C 165.701 271.096,165.692 270.772,164.723 271.900 M157.888 281.187 C 157.072 282.279,156.649 283.079,156.948 282.965 C 157.247 282.850,157.693 282.361,157.940 281.878 C 158.186 281.395,158.682 280.595,159.043 280.100 C 159.403 279.605,159.624 279.200,159.534 279.200 C 159.444 279.200,158.703 280.094,157.888 281.187 M155.123 285.100 C 154.418 285.921,153.890 286.800,154.101 286.800 C 154.183 286.800,154.649 286.260,155.137 285.600 C 156.101 284.296,156.092 283.972,155.123 285.100 " stroke="none" fill="#5c6cb4" fill-rule="evenodd"></path></g></svg>