<svg id="svg" version="1.1" xmlns="http://www.w3.org/2000/svg" xmlns:xlink="http://www.w3.org/1999/xlink" width="400" height="282.8125" viewBox="0, 0, 400,282.8125"><g id="svgg"><path id="path0" d="M242.113 37.190 C 239.325 37.648,236.137 38.433,235.927 38.715 C 235.849 38.820,234.830 39.203,233.663 39.567 C 231.826 40.141,223.593 43.939,223.197 44.397 C 222.977 44.650,220.910 45.908,219.698 46.526 C 219.097 46.833,218.542 47.246,218.466 47.445 C 218.390 47.645,218.206 47.808,218.059 47.808 C 217.809 47.808,214.457 49.971,214.144 50.334 C 213.826 50.704,211.902 52.051,211.688 52.054 C 211.561 52.056,210.910 52.566,210.242 53.186 C 209.574 53.806,208.935 54.314,208.822 54.314 C 208.708 54.314,207.982 54.897,207.207 55.610 C 206.433 56.323,205.649 56.991,205.466 57.095 C 205.283 57.199,203.978 58.344,202.566 59.639 L 199.998 61.994 198.915 61.054 C 194.604 57.307,192.062 55.160,191.089 54.442 C 190.467 53.983,189.830 53.462,189.675 53.285 C 189.519 53.109,188.692 52.484,187.836 51.897 C 186.980 51.310,186.216 50.754,186.139 50.661 C 186.061 50.567,185.170 49.955,184.158 49.299 C 183.147 48.643,181.840 47.759,181.253 47.333 C 179.889 46.343,177.673 45.092,174.116 43.303 C 172.560 42.521,171.146 41.763,170.975 41.618 C 170.512 41.230,165.228 39.289,164.159 39.116 C 163.627 39.029,163.312 38.843,163.416 38.675 C 163.521 38.505,163.456 38.471,163.256 38.595 C 163.070 38.710,162.764 38.677,162.576 38.522 C 160.269 36.617,145.175 36.788,143.423 38.739 C 143.345 38.826,142.519 39.279,141.586 39.745 C 140.654 40.212,139.381 41.066,138.757 41.643 C 138.134 42.220,137.415 42.856,137.160 43.057 C 135.991 43.978,132.819 49.053,132.247 50.919 C 132.127 51.308,131.738 52.266,131.382 53.048 C 128.732 58.868,127.840 74.401,129.415 87.312 C 130.051 92.524,130.993 98.254,131.269 98.593 C 131.399 98.752,131.588 99.516,131.689 100.290 L 131.872 101.697 128.603 102.653 C 126.805 103.179,124.998 103.784,124.588 103.996 C 124.177 104.209,123.315 104.568,122.671 104.793 C 119.466 105.913,118.060 106.446,117.542 106.734 C 117.229 106.908,116.878 107.024,116.761 106.991 C 116.644 106.958,116.549 107.058,116.549 107.214 C 116.549 107.369,116.424 107.496,116.270 107.496 C 115.863 107.496,110.827 109.697,110.632 109.960 C 110.541 110.083,109.226 110.788,107.709 111.526 C 106.192 112.264,104.950 112.996,104.950 113.152 C 104.950 113.309,104.808 113.437,104.634 113.437 C 104.188 113.437,101.074 115.340,99.688 116.460 C 99.050 116.976,98.402 117.397,98.249 117.397 C 98.095 117.397,97.408 117.969,96.722 118.668 C 96.035 119.367,95.336 119.940,95.167 119.941 C 94.657 119.945,88.812 126.177,87.746 127.854 C 87.199 128.715,86.644 129.463,86.514 129.515 C 86.383 129.567,86.348 129.726,86.436 129.869 C 86.524 130.011,86.477 130.127,86.332 130.127 C 85.787 130.127,83.734 135.885,83.734 137.411 C 83.734 137.761,83.607 138.048,83.451 138.048 C 83.097 138.048,83.066 143.609,83.419 143.827 C 83.556 143.912,83.754 144.547,83.857 145.238 C 84.082 146.737,84.977 149.359,85.741 150.759 C 86.760 152.627,88.825 155.726,89.269 156.056 C 89.512 156.235,90.052 156.834,90.470 157.386 C 91.176 158.318,93.897 160.841,96.796 163.253 C 98.551 164.713,103.128 167.782,104.950 168.720 C 105.806 169.161,106.575 169.628,106.659 169.759 C 106.743 169.890,108.080 170.589,109.630 171.312 C 111.179 172.035,112.511 172.717,112.588 172.827 C 112.666 172.937,113.939 173.511,115.417 174.103 C 116.895 174.694,118.550 175.402,119.095 175.675 C 119.639 175.948,121.676 176.716,123.621 177.381 C 125.566 178.046,127.284 178.684,127.440 178.799 C 127.595 178.914,128.678 179.289,129.844 179.632 C 131.011 179.976,132.004 180.292,132.050 180.335 C 132.203 180.477,131.437 184.297,131.226 184.445 C 130.982 184.615,129.740 193.022,129.241 197.878 C 128.781 202.365,128.782 214.631,129.243 218.246 C 129.705 221.862,130.883 227.490,131.222 227.701 C 131.366 227.791,131.631 228.414,131.812 229.087 C 132.232 230.649,133.926 234.379,134.330 234.628 C 134.500 234.733,134.847 235.259,135.102 235.796 C 136.219 238.150,140.409 241.780,143.423 243.004 C 144.590 243.478,145.759 243.985,146.021 244.130 C 147.955 245.203,158.855 245.208,160.255 244.138 C 160.410 244.019,161.238 243.763,162.093 243.571 C 164.350 243.062,168.674 241.550,169.104 241.120 C 169.308 240.917,169.945 240.615,170.522 240.449 C 172.248 239.952,179.449 236.100,180.525 235.097 C 180.826 234.817,181.646 234.293,182.347 233.932 C 183.049 233.571,183.941 232.981,184.329 232.621 C 184.718 232.261,185.125 231.957,185.234 231.946 C 185.342 231.934,186.259 231.297,187.270 230.529 C 188.281 229.761,189.677 228.720,190.371 228.215 C 191.065 227.711,191.900 227.041,192.228 226.727 C 192.555 226.413,193.388 225.721,194.078 225.190 C 195.378 224.188,196.635 223.063,198.753 221.004 C 200.299 219.503,199.866 219.376,203.110 222.277 C 207.467 226.174,214.046 231.400,214.594 231.400 C 214.765 231.400,215.141 231.660,215.428 231.978 C 215.716 232.296,216.913 233.139,218.089 233.851 C 219.264 234.563,220.290 235.226,220.368 235.324 C 220.532 235.531,221.361 236.023,223.338 237.088 C 224.116 237.507,225.453 238.232,226.308 238.699 C 227.164 239.166,228.755 239.898,229.844 240.326 C 230.934 240.754,231.888 241.195,231.966 241.307 C 232.176 241.609,236.045 242.859,238.472 243.409 C 239.639 243.673,240.808 244.003,241.070 244.141 C 242.728 245.020,253.115 245.004,253.418 244.122 C 253.470 243.971,253.745 243.847,254.030 243.847 C 256.797 243.847,263.823 238.832,265.101 235.945 C 265.312 235.468,265.579 235.078,265.694 235.078 C 265.953 235.078,267.344 232.321,268.049 230.410 C 268.336 229.632,268.671 228.926,268.793 228.840 C 268.915 228.755,269.267 227.673,269.574 226.436 C 271.890 217.117,272.246 207.264,270.730 194.516 C 270.253 190.505,268.991 182.917,268.750 182.603 C 268.630 182.447,268.450 181.865,268.350 181.310 L 268.169 180.300 270.364 179.622 C 271.572 179.249,272.624 178.867,272.702 178.773 C 272.779 178.679,274.257 178.141,275.986 177.577 C 277.715 177.013,280.096 176.099,281.277 175.546 C 282.458 174.993,283.510 174.540,283.615 174.540 C 283.881 174.540,287.210 173.046,287.553 172.772 C 287.709 172.648,289.109 171.909,290.665 171.131 C 304.399 164.261,313.692 155.128,315.935 146.295 C 316.216 145.186,316.533 144.193,316.639 144.087 C 316.907 143.819,316.882 137.765,316.614 137.765 C 316.494 137.765,316.254 137.033,316.082 136.139 C 315.706 134.188,314.323 130.557,313.702 129.890 C 313.456 129.627,312.911 128.824,312.491 128.106 C 312.070 127.387,311.378 126.435,310.955 125.988 C 310.531 125.542,309.866 124.769,309.477 124.271 C 308.872 123.495,307.284 122.012,303.443 118.634 C 303.002 118.247,302.016 117.545,301.250 117.074 C 300.485 116.603,299.859 116.125,299.859 116.011 C 299.859 115.898,299.381 115.543,298.798 115.223 C 296.292 113.848,294.888 113.018,294.599 112.742 C 294.429 112.580,293.220 111.938,291.912 111.315 C 290.603 110.693,289.465 110.093,289.381 109.981 C 289.297 109.870,288.342 109.381,287.259 108.896 C 286.176 108.410,284.399 107.594,283.310 107.082 C 282.221 106.570,280.120 105.735,278.642 105.227 C 277.164 104.719,275.891 104.220,275.813 104.118 C 275.736 104.016,274.017 103.438,271.994 102.834 C 269.972 102.231,268.224 101.660,268.110 101.567 C 267.876 101.374,268.463 97.812,268.766 97.595 C 269.401 97.140,270.953 83.516,271.182 76.379 C 271.458 67.797,270.073 54.956,268.772 54.032 C 268.662 53.954,268.406 53.317,268.204 52.617 C 267.792 51.193,266.011 47.206,265.681 46.970 C 265.564 46.886,265.004 46.117,264.437 45.262 C 260.146 38.790,251.476 35.655,242.113 37.190 M249.845 48.409 C 255.070 49.517,257.587 53.530,259.586 63.932 C 260.289 67.591,260.440 81.922,259.787 82.942 C 259.657 83.144,259.527 83.692,259.497 84.158 C 259.427 85.261,258.418 91.860,257.768 95.474 C 257.265 98.267,256.488 99.335,255.760 98.230 C 255.572 97.945,249.750 96.749,244.979 96.016 C 243.345 95.765,241.818 95.490,241.584 95.404 C 240.772 95.104,240.277 95.027,234.512 94.307 C 231.322 93.909,228.432 93.530,228.089 93.465 C 227.522 93.359,225.443 90.847,222.402 86.598 C 221.888 85.878,221.310 85.163,221.118 85.007 C 220.926 84.851,220.397 84.215,219.942 83.593 C 218.657 81.835,215.076 77.679,212.773 75.272 C 211.941 74.403,211.270 73.628,211.283 73.550 C 211.295 73.472,210.550 72.639,209.627 71.698 L 207.948 69.988 210.127 68.103 C 211.325 67.067,212.624 65.911,213.013 65.534 C 213.402 65.158,214.380 64.383,215.186 63.813 C 215.992 63.242,216.692 62.678,216.742 62.559 C 216.791 62.441,217.456 61.917,218.219 61.397 C 218.982 60.876,219.814 60.247,220.067 59.999 C 220.510 59.565,223.592 57.434,224.198 57.143 C 224.360 57.065,224.945 56.651,225.498 56.223 C 226.051 55.796,226.608 55.446,226.736 55.446 C 226.863 55.446,227.891 54.870,229.020 54.167 C 230.148 53.464,231.686 52.620,232.438 52.292 C 233.190 51.965,234.696 51.284,235.785 50.781 C 240.482 48.608,246.222 47.640,249.845 48.409 M156.596 48.675 C 159.277 49.156,162.056 50.045,164.585 51.232 C 165.878 51.838,167.005 52.334,167.089 52.334 C 167.484 52.334,174.557 56.410,174.988 56.885 C 175.257 57.183,175.586 57.426,175.720 57.426 C 176.043 57.426,179.049 59.410,179.711 60.059 C 179.997 60.341,180.765 60.916,181.417 61.336 C 182.069 61.756,183.112 62.576,183.734 63.156 C 184.356 63.737,184.960 64.213,185.075 64.214 C 185.270 64.215,186.077 64.905,190.148 68.552 L 191.752 69.990 190.888 70.992 C 190.413 71.543,189.491 72.567,188.838 73.267 C 188.186 73.967,186.608 75.750,185.331 77.228 C 184.054 78.706,182.480 80.526,181.833 81.272 C 181.186 82.019,180.442 82.974,180.180 83.394 C 179.918 83.814,179.306 84.532,178.819 84.989 C 178.333 85.446,177.935 85.921,177.935 86.044 C 177.935 86.168,177.415 86.939,176.780 87.759 C 176.144 88.579,174.931 90.172,174.083 91.298 C 173.177 92.502,172.284 93.396,171.915 93.468 C 171.570 93.535,168.932 93.863,166.054 94.198 C 163.175 94.533,160.311 94.933,159.689 95.087 C 159.066 95.241,157.093 95.615,155.304 95.919 C 149.825 96.849,144.710 97.916,144.427 98.187 C 142.908 99.641,142.255 97.746,141.007 88.260 C 140.751 86.315,140.428 84.470,140.290 84.158 C 139.451 82.264,139.465 65.272,140.307 63.692 C 140.444 63.435,140.701 62.397,140.879 61.386 C 142.079 54.536,144.952 50.039,148.939 48.771 C 150.345 48.324,154.361 48.274,156.596 48.675 M205.446 84.078 C 206.340 85.087,207.455 86.441,207.923 87.086 C 208.390 87.732,208.896 88.260,209.047 88.260 C 209.197 88.260,209.505 88.610,209.731 89.038 C 209.956 89.466,210.665 90.389,211.306 91.089 L 212.472 92.362 211.005 92.449 C 210.198 92.497,209.403 92.401,209.238 92.237 C 208.838 91.836,190.205 91.821,189.958 92.221 C 189.756 92.546,187.551 92.611,187.558 92.291 C 187.561 92.175,187.899 91.761,188.311 91.372 C 188.722 90.983,189.267 90.322,189.523 89.904 C 190.010 89.106,190.138 88.956,196.105 82.222 L 199.826 78.022 201.822 80.133 C 202.921 81.294,204.551 83.069,205.446 84.078 M216.973 103.695 C 218.140 103.778,219.413 103.924,219.802 104.018 C 220.191 104.113,220.687 104.226,220.905 104.269 C 221.123 104.312,221.378 104.462,221.471 104.603 C 221.564 104.743,222.084 105.547,222.626 106.390 C 223.168 107.232,223.816 108.146,224.066 108.421 C 224.316 108.696,224.697 109.268,224.914 109.694 C 225.130 110.119,225.897 111.358,226.617 112.447 C 227.338 113.536,228.292 115.064,228.737 115.842 C 229.181 116.620,229.770 117.501,230.045 117.801 C 230.320 118.101,230.629 118.609,230.730 118.930 C 230.832 119.251,231.521 120.479,232.261 121.659 C 233.000 122.840,234.017 124.623,234.520 125.623 C 235.022 126.622,235.520 127.504,235.627 127.581 C 235.733 127.659,236.433 128.996,237.183 130.552 C 237.933 132.107,238.630 133.444,238.732 133.522 C 238.834 133.600,239.538 135.032,240.297 136.704 C 241.056 138.377,241.768 139.745,241.880 139.745 C 242.888 139.745,234.829 157.025,232.636 159.568 C 232.425 159.813,231.723 161.022,231.076 162.255 C 230.429 163.489,229.788 164.542,229.651 164.595 C 229.515 164.648,229.088 165.313,228.704 166.072 C 228.319 166.830,227.241 168.594,226.308 169.992 C 225.375 171.390,224.611 172.638,224.611 172.766 C 224.611 172.895,224.234 173.413,223.773 173.918 C 223.312 174.422,222.735 175.246,222.490 175.749 C 221.579 177.623,221.709 177.574,216.678 177.905 C 214.118 178.073,210.909 178.230,209.547 178.253 C 208.186 178.276,207.072 178.401,207.072 178.531 C 207.072 178.661,203.890 178.768,200.000 178.768 C 196.110 178.768,192.928 178.664,192.928 178.537 C 192.928 178.411,190.541 178.226,187.624 178.127 C 178.979 177.833,178.866 177.812,177.926 176.264 C 177.491 175.550,176.825 174.583,176.446 174.116 C 176.066 173.649,175.592 172.949,175.391 172.560 C 175.190 172.171,174.312 170.769,173.439 169.445 C 172.567 168.120,171.613 166.566,171.320 165.992 C 171.027 165.418,170.582 164.713,170.330 164.426 C 169.831 163.855,169.581 163.441,168.274 161.020 C 167.795 160.132,167.308 159.342,167.193 159.264 C 167.077 159.187,166.369 157.914,165.618 156.436 C 164.868 154.958,164.169 153.685,164.065 153.607 C 163.962 153.529,163.318 152.320,162.635 150.919 C 161.952 149.519,161.305 148.308,161.197 148.227 C 161.089 148.147,160.400 146.747,159.666 145.115 C 158.932 143.484,158.181 141.929,157.997 141.659 C 157.695 141.217,159.916 135.870,161.259 133.805 C 161.411 133.571,162.108 132.235,162.809 130.835 C 164.240 127.973,166.734 123.352,167.092 122.899 C 167.378 122.537,167.789 121.825,168.926 119.719 C 169.405 118.831,169.890 118.041,170.004 117.963 C 170.118 117.885,170.531 117.249,170.923 116.549 C 172.150 114.352,172.936 113.055,173.837 111.740 C 174.316 111.040,174.882 110.119,175.094 109.694 C 175.306 109.268,175.683 108.696,175.933 108.421 C 176.182 108.146,176.893 107.126,177.514 106.155 C 178.141 105.174,178.862 104.373,179.137 104.352 C 179.409 104.331,179.728 104.288,179.844 104.256 C 179.961 104.223,180.375 104.111,180.764 104.005 C 183.061 103.380,209.392 103.155,216.973 103.695 M163.278 106.968 C 162.980 107.492,162.342 108.557,161.860 109.335 C 159.487 113.162,156.436 118.395,156.436 118.636 C 156.436 118.765,156.081 119.399,155.648 120.044 C 155.215 120.689,154.298 122.362,153.609 123.762 C 152.920 125.163,152.193 126.476,151.992 126.682 C 151.578 127.106,151.634 127.220,150.339 123.338 C 149.898 122.016,149.445 120.869,149.333 120.790 C 149.220 120.711,148.540 118.738,147.821 116.405 C 147.101 114.073,146.327 111.763,146.099 111.273 C 145.228 109.392,145.189 109.417,150.707 108.389 C 153.469 107.875,155.983 107.336,156.294 107.193 C 156.811 106.954,163.538 105.843,163.734 105.963 C 163.780 105.992,163.575 106.444,163.278 106.968 M243.706 107.193 C 244.017 107.334,246.436 107.858,249.081 108.357 C 254.700 109.418,254.334 109.278,254.042 110.258 C 253.916 110.684,253.766 111.223,253.709 111.457 C 253.653 111.690,253.536 111.945,253.450 112.023 C 253.365 112.100,252.745 114.010,252.074 116.266 C 251.403 118.522,250.765 120.431,250.657 120.509 C 250.549 120.587,250.172 121.542,249.819 122.631 C 248.141 127.805,248.404 127.760,246.194 123.249 C 245.494 121.820,244.827 120.587,244.714 120.509 C 244.600 120.431,244.110 119.579,243.624 118.616 C 242.477 116.340,242.088 115.667,241.644 115.185 C 241.443 114.967,240.952 114.135,240.551 113.335 C 240.151 112.535,239.541 111.499,239.196 111.033 C 238.497 110.089,236.209 106.271,236.209 106.049 C 236.209 105.846,243.031 106.886,243.706 107.193 M266.224 112.635 C 266.753 112.816,267.249 113.046,267.327 113.146 C 267.405 113.246,269.346 113.937,271.641 114.681 C 273.936 115.425,275.813 116.125,275.813 116.237 C 275.813 116.349,276.418 116.646,277.157 116.896 C 279.020 117.528,282.058 118.815,282.433 119.131 C 282.604 119.276,283.923 119.960,285.365 120.652 C 286.806 121.343,288.143 122.044,288.335 122.208 C 288.856 122.656,291.973 124.470,292.220 124.470 C 292.338 124.470,292.609 124.682,292.823 124.943 C 293.036 125.203,293.929 125.881,294.806 126.450 C 297.375 128.115,302.383 132.980,303.139 134.545 C 303.373 135.029,303.794 135.672,304.075 135.973 C 307.103 139.224,305.525 145.420,300.360 150.562 C 297.746 153.165,292.959 157.001,292.324 157.002 C 292.189 157.002,291.697 157.333,291.231 157.737 C 290.764 158.142,289.491 158.921,288.402 159.470 C 287.313 160.019,286.354 160.574,286.271 160.703 C 286.188 160.832,285.169 161.372,284.008 161.902 C 282.846 162.432,280.941 163.311,279.774 163.855 C 278.607 164.400,276.634 165.206,275.389 165.646 C 274.144 166.086,273.062 166.536,272.984 166.644 C 272.818 166.878,265.343 169.262,265.222 169.121 C 265.176 169.068,264.728 167.560,264.226 165.771 C 263.723 163.982,263.137 162.136,262.922 161.669 C 262.708 161.202,261.949 159.041,261.237 156.867 C 260.524 154.693,259.843 152.847,259.723 152.765 C 259.603 152.684,259.085 151.407,258.572 149.929 C 258.059 148.451,257.275 146.455,256.829 145.493 C 256.383 144.531,255.753 143.071,255.429 142.249 L 254.839 140.754 255.629 138.764 C 256.063 137.670,256.534 136.694,256.675 136.595 C 256.817 136.495,256.845 136.273,256.738 136.100 C 256.631 135.927,256.661 135.785,256.805 135.785 C 256.948 135.785,257.608 134.289,258.270 132.461 C 258.932 130.633,259.573 129.010,259.695 128.854 C 259.817 128.699,260.501 126.789,261.215 124.611 C 261.928 122.433,262.630 120.446,262.775 120.196 C 263.015 119.780,264.461 114.922,264.892 113.083 C 264.992 112.656,265.117 112.306,265.168 112.306 C 265.220 112.306,265.695 112.454,266.224 112.635 M135.895 116.539 C 136.500 118.711,137.072 120.525,137.168 120.569 C 137.263 120.614,137.934 122.369,138.660 124.470 C 140.350 129.366,142.850 135.883,143.107 136.067 C 143.217 136.145,143.718 137.291,144.221 138.614 L 145.136 141.018 144.262 143.273 C 143.782 144.513,143.269 145.672,143.122 145.849 C 142.848 146.179,141.412 149.963,140.737 152.135 C 140.529 152.803,140.233 153.503,140.080 153.691 C 139.775 154.062,137.963 159.407,137.639 160.891 C 137.528 161.397,137.344 161.810,137.230 161.810 C 137.049 161.810,135.882 165.441,135.684 166.620 C 135.544 167.450,134.889 169.165,134.712 169.165 C 134.259 169.165,127.141 166.818,127.016 166.628 C 126.938 166.510,126.556 166.320,126.167 166.206 C 124.719 165.783,120.338 164.006,119.519 163.509 C 119.052 163.226,117.876 162.674,116.904 162.282 C 115.933 161.890,114.756 161.297,114.289 160.964 C 113.823 160.632,113.293 160.452,113.112 160.563 C 112.930 160.676,112.860 160.644,112.955 160.490 C 113.048 160.338,112.289 159.785,111.267 159.261 C 110.246 158.737,109.266 158.167,109.090 157.994 C 108.913 157.820,107.826 157.070,106.672 156.326 C 96.570 149.808,91.677 140.533,95.932 135.966 C 96.209 135.669,96.627 135.029,96.861 134.545 C 97.226 133.790,100.368 130.437,102.687 128.328 C 103.640 127.462,106.508 125.470,109.149 123.841 C 110.341 123.106,111.473 122.370,111.665 122.206 C 111.857 122.043,113.194 121.343,114.635 120.652 C 116.077 119.960,117.383 119.288,117.539 119.158 C 117.695 119.028,119.222 118.362,120.934 117.677 C 122.645 116.993,124.112 116.339,124.193 116.225 C 124.274 116.110,126.184 115.413,128.436 114.676 C 130.689 113.938,132.595 113.250,132.673 113.145 C 133.886 111.522,134.752 112.434,135.895 116.539 M196.690 119.086 C 196.566 119.190,195.638 119.436,194.629 119.634 C 188.599 120.815,182.264 125.964,180.085 131.456 C 179.727 132.359,179.330 133.352,179.204 133.663 C 179.077 133.975,178.961 134.293,178.945 134.371 C 178.929 134.448,178.829 134.649,178.723 134.816 C 177.758 136.328,177.743 144.492,178.701 146.818 C 178.798 147.051,178.898 147.306,178.924 147.383 C 178.951 147.461,179.121 147.883,179.302 148.321 C 179.484 148.759,179.632 149.170,179.632 149.233 C 179.632 153.021,188.002 160.532,194.024 162.148 C 202.839 164.514,210.781 161.799,217.838 154.010 C 218.536 153.238,220.244 149.755,220.497 148.586 C 220.606 148.080,220.804 147.666,220.936 147.666 C 222.163 147.666,222.186 135.091,220.962 134.088 C 220.867 134.010,220.616 133.437,220.404 132.815 C 219.105 128.997,214.683 123.483,212.165 122.542 C 211.931 122.455,211.612 122.215,211.457 122.009 C 211.056 121.478,207.473 120.068,205.491 119.661 C 204.571 119.472,203.628 119.243,203.395 119.152 C 202.791 118.917,196.961 118.860,196.690 119.086 M153.738 158.328 C 157.093 164.669,157.626 165.631,158.099 166.195 C 158.360 166.506,159.015 167.621,159.555 168.672 C 160.096 169.724,160.887 170.997,161.315 171.501 C 161.742 172.006,162.092 172.520,162.093 172.644 C 162.093 172.769,162.537 173.564,163.080 174.412 L 164.067 175.955 163.363 175.955 C 162.976 175.955,162.659 175.853,162.659 175.729 C 162.659 175.606,162.309 175.517,161.881 175.533 C 161.453 175.549,160.976 175.478,160.820 175.375 C 160.665 175.271,159.519 175.034,158.274 174.847 C 152.540 173.988,146.277 172.630,145.733 172.128 C 145.680 172.080,145.836 171.616,146.078 171.098 C 146.320 170.580,147.109 168.182,147.831 165.771 C 148.553 163.359,149.238 161.322,149.353 161.245 C 149.469 161.167,149.786 160.403,150.058 159.547 C 150.990 156.615,151.707 154.725,151.839 154.856 C 151.911 154.928,152.765 156.491,153.738 158.328 M249.522 158.043 C 249.972 159.375,250.459 160.608,250.604 160.784 C 250.749 160.959,251.404 162.885,252.059 165.064 C 252.714 167.242,253.410 169.342,253.606 169.731 C 255.024 172.542,254.843 172.622,242.150 174.828 C 238.964 175.381,238.572 175.458,236.987 175.835 C 236.001 176.070,236.012 175.831,237.058 174.257 C 237.523 173.557,237.905 172.857,237.906 172.702 C 237.907 172.546,238.258 172.006,238.685 171.501 C 239.113 170.997,239.972 169.597,240.594 168.391 C 241.216 167.185,241.869 166.070,242.045 165.914 C 242.392 165.604,244.344 161.999,246.311 158.035 C 248.277 154.074,248.181 154.074,249.522 158.043 M146.676 184.065 C 148.076 184.331,149.286 184.638,149.364 184.746 C 149.522 184.967,158.537 186.497,162.659 187.003 C 164.137 187.184,165.601 187.442,165.912 187.576 C 166.223 187.710,167.813 187.961,169.445 188.133 C 172.811 188.487,172.707 188.430,174.373 190.814 C 175.053 191.786,175.817 192.819,176.072 193.109 C 176.326 193.398,177.800 195.226,179.346 197.171 C 183.878 202.869,185.067 204.265,189.072 208.586 C 190.493 210.118,191.698 211.490,191.751 211.633 C 191.851 211.903,189.677 214.048,187.699 215.631 C 187.074 216.131,186.245 216.833,185.856 217.192 C 184.602 218.349,181.803 220.518,179.915 221.796 C 178.904 222.481,178.034 223.141,177.982 223.262 C 177.929 223.383,177.013 223.993,175.945 224.617 C 174.877 225.241,173.930 225.868,173.842 226.012 C 173.753 226.155,173.333 226.452,172.908 226.670 C 172.483 226.889,171.308 227.491,170.297 228.008 C 169.286 228.525,168.395 229.038,168.317 229.147 C 168.170 229.351,164.254 231.117,163.946 231.117 C 163.851 231.117,163.363 231.289,162.862 231.498 C 162.362 231.707,161.839 231.887,161.701 231.898 C 161.562 231.909,161.372 232.031,161.276 232.170 C 160.531 233.254,151.948 234.044,149.292 233.271 C 144.361 231.838,141.423 225.800,139.988 214.144 C 139.645 211.363,139.854 200.034,140.262 199.247 C 140.411 198.961,140.741 196.928,140.996 194.728 C 141.389 191.335,142.182 186.407,142.735 183.917 C 142.851 183.392,143.015 183.286,143.506 183.416 C 143.849 183.507,145.276 183.799,146.676 184.065 M257.429 183.522 C 257.431 183.639,257.799 185.835,258.248 188.402 C 258.946 192.396,259.469 196.037,259.457 196.814 C 259.456 196.933,259.560 197.158,259.690 197.314 C 260.716 198.550,260.621 214.170,259.557 219.095 C 258.596 223.550,257.361 227.262,256.541 228.165 C 256.250 228.487,256.011 228.883,256.011 229.045 C 256.011 229.716,253.069 232.372,251.686 232.950 C 249.463 233.878,243.132 233.594,240.460 232.445 C 240.067 232.277,239.618 232.128,239.463 232.115 C 239.307 232.103,239.039 232.004,238.867 231.897 C 238.695 231.789,237.613 231.362,236.463 230.947 C 234.396 230.203,229.124 227.567,227.691 226.561 C 227.284 226.276,226.871 226.123,226.771 226.222 C 226.672 226.322,226.591 226.263,226.591 226.092 C 226.591 225.921,225.636 225.238,224.470 224.574 C 223.303 223.910,222.348 223.276,222.348 223.165 C 222.348 223.053,221.743 222.585,221.004 222.123 C 218.829 220.766,214.708 217.471,210.350 213.607 C 209.403 212.768,208.524 211.989,208.396 211.877 C 208.269 211.765,208.888 210.924,209.771 210.009 C 210.654 209.094,211.904 207.742,212.548 207.004 C 213.193 206.267,214.165 205.198,214.710 204.629 C 215.255 204.060,215.891 203.309,216.124 202.960 C 216.358 202.612,217.093 201.707,217.758 200.951 C 219.522 198.943,224.848 192.124,225.680 190.806 C 227.015 188.692,227.477 188.432,230.489 188.096 C 231.994 187.928,233.324 187.729,233.446 187.654 C 233.568 187.579,235.799 187.216,238.404 186.847 C 244.550 185.977,250.096 185.028,250.477 184.779 C 251.316 184.232,257.423 183.128,257.429 183.522 M212.164 189.824 C 212.164 189.949,212.061 190.094,211.935 190.146 C 211.809 190.198,211.141 191.004,210.450 191.938 C 209.759 192.871,209.044 193.762,208.861 193.918 C 208.678 194.074,208.073 194.774,207.516 195.474 C 206.226 197.094,204.572 198.950,202.334 201.286 C 201.361 202.301,200.566 203.254,200.566 203.404 C 200.566 204.023,199.690 203.610,198.951 202.642 C 198.517 202.073,197.652 201.067,197.030 200.408 C 194.536 197.764,191.450 194.181,189.193 191.308 L 187.864 189.616 200.014 189.606 C 206.696 189.601,212.164 189.699,212.164 189.824 " stroke="none" fill="#64dcfc" fill-rule="evenodd"></path><path id="path1" d="M194.554 178.710 C 195.527 178.765,197.118 178.765,198.091 178.710 C 199.063 178.655,198.267 178.610,196.322 178.610 C 194.378 178.610,193.582 178.655,194.554 178.710 M201.909 178.710 C 202.882 178.765,204.473 178.765,205.446 178.710 C 206.418 178.655,205.622 178.610,203.678 178.610 C 201.733 178.610,200.937 178.655,201.909 178.710 " stroke="none" fill="#68dcfc" fill-rule="evenodd"></path><path id="path2" d="M194.554 178.710 C 195.527 178.765,197.118 178.765,198.091 178.710 C 199.063 178.655,198.267 178.610,196.322 178.610 C 194.378 178.610,193.582 178.655,194.554 178.710 M201.909 178.710 C 202.882 178.765,204.473 178.765,205.446 178.710 C 206.418 178.655,205.622 178.610,203.678 178.610 C 201.733 178.610,200.937 178.655,201.909 178.710 " stroke="none" fill="#68dcfc" fill-rule="evenodd"></path><path id="path3" d="M194.554 178.710 C 195.527 178.765,197.118 178.765,198.091 178.710 C 199.063 178.655,198.267 178.610,196.322 178.610 C 194.378 178.610,193.582 178.655,194.554 178.710 M201.909 178.710 C 202.882 178.765,204.473 178.765,205.446 178.710 C 206.418 178.655,205.622 178.610,203.678 178.610 C 201.733 178.610,200.937 178.655,201.909 178.710 " stroke="none" fill="#68dcfc" fill-rule="evenodd"></path><path id="path4" d="M194.554 178.710 C 195.527 178.765,197.118 178.765,198.091 178.710 C 199.063 178.655,198.267 178.610,196.322 178.610 C 194.378 178.610,193.582 178.655,194.554 178.710 M201.909 178.710 C 202.882 178.765,204.473 178.765,205.446 178.710 C 206.418 178.655,205.622 178.610,203.678 178.610 C 201.733 178.610,200.937 178.655,201.909 178.710 " stroke="none" fill="#68dcfc" fill-rule="evenodd"></path></g></svg>